<svg width="595" height="842" viewBox="0 0 595 842" fill="none" xmlns="http://www.w3.org/2000/svg">
<rect width="595" height="842" fill="#372724"/>
<path d="M83.3965 184.604L76.0488 207H70.1299L80.168 179.984H83.9346L83.3965 184.604ZM89.501 207L82.1348 184.604L81.541 179.984H85.3447L95.4385 207H89.501ZM89.167 196.943V201.304H74.8984V196.943H89.167ZM102.954 191.303V207H97.6104V186.924H102.639L102.954 191.303ZM109.003 186.794L108.91 191.748C108.65 191.711 108.335 191.68 107.964 191.655C107.605 191.618 107.277 191.6 106.981 191.6C106.226 191.6 105.57 191.699 105.014 191.896C104.469 192.082 104.012 192.36 103.641 192.731C103.282 193.103 103.01 193.554 102.824 194.086C102.651 194.618 102.552 195.224 102.527 195.904L101.451 195.57C101.451 194.271 101.581 193.078 101.841 191.989C102.101 190.888 102.478 189.93 102.973 189.113C103.48 188.297 104.098 187.666 104.828 187.221C105.558 186.775 106.393 186.553 107.333 186.553C107.63 186.553 107.933 186.577 108.242 186.627C108.552 186.664 108.805 186.72 109.003 186.794ZM119.45 203.196C120.106 203.196 120.687 203.073 121.195 202.825C121.702 202.565 122.098 202.207 122.382 201.749C122.679 201.279 122.834 200.729 122.846 200.098H127.874C127.862 201.508 127.485 202.763 126.742 203.864C126 204.953 125.004 205.812 123.755 206.443C122.506 207.062 121.108 207.371 119.562 207.371C118.003 207.371 116.642 207.111 115.48 206.592C114.329 206.072 113.371 205.355 112.604 204.439C111.837 203.512 111.262 202.436 110.878 201.211C110.495 199.974 110.303 198.65 110.303 197.24V196.702C110.303 195.28 110.495 193.956 110.878 192.731C111.262 191.494 111.837 190.418 112.604 189.503C113.371 188.575 114.329 187.852 115.48 187.332C116.63 186.812 117.978 186.553 119.525 186.553C121.17 186.553 122.611 186.868 123.848 187.499C125.097 188.13 126.074 189.033 126.779 190.208C127.497 191.371 127.862 192.75 127.874 194.346H122.846C122.834 193.678 122.691 193.072 122.419 192.527C122.159 191.983 121.776 191.55 121.269 191.229C120.774 190.895 120.162 190.728 119.432 190.728C118.653 190.728 118.015 190.895 117.521 191.229C117.026 191.55 116.642 191.995 116.37 192.564C116.098 193.121 115.906 193.758 115.795 194.476C115.696 195.181 115.647 195.923 115.647 196.702V197.24C115.647 198.02 115.696 198.768 115.795 199.485C115.894 200.203 116.08 200.84 116.352 201.396C116.636 201.953 117.026 202.392 117.521 202.714C118.015 203.035 118.659 203.196 119.45 203.196ZM136.188 178.5V207H130.844V178.5H136.188ZM135.427 196.257H133.961C133.974 194.859 134.159 193.573 134.518 192.397C134.877 191.21 135.39 190.183 136.058 189.317C136.726 188.439 137.524 187.759 138.451 187.276C139.392 186.794 140.431 186.553 141.569 186.553C142.558 186.553 143.455 186.695 144.259 186.979C145.075 187.252 145.774 187.697 146.356 188.315C146.949 188.922 147.407 189.719 147.729 190.709C148.05 191.699 148.211 192.898 148.211 194.309V207H142.83V194.271C142.83 193.381 142.7 192.682 142.441 192.175C142.193 191.655 141.828 191.29 141.346 191.08C140.876 190.857 140.295 190.746 139.602 190.746C138.835 190.746 138.179 190.888 137.635 191.173C137.103 191.457 136.676 191.853 136.355 192.36C136.033 192.855 135.798 193.437 135.65 194.104C135.501 194.772 135.427 195.49 135.427 196.257ZM157.916 186.924V207H152.554V186.924H157.916ZM152.22 181.691C152.22 180.912 152.492 180.269 153.036 179.762C153.581 179.255 154.311 179.001 155.226 179.001C156.129 179.001 156.853 179.255 157.397 179.762C157.953 180.269 158.232 180.912 158.232 181.691C158.232 182.471 157.953 183.114 157.397 183.621C156.853 184.128 156.129 184.382 155.226 184.382C154.311 184.382 153.581 184.128 153.036 183.621C152.492 183.114 152.22 182.471 152.22 181.691ZM172.167 186.924V190.709H160.478V186.924H172.167ZM163.372 181.97H168.716V200.951C168.716 201.533 168.79 201.978 168.939 202.287C169.1 202.596 169.335 202.813 169.644 202.937C169.953 203.048 170.343 203.104 170.813 203.104C171.147 203.104 171.444 203.091 171.704 203.066C171.976 203.029 172.205 202.992 172.39 202.955L172.409 206.889C171.951 207.037 171.456 207.155 170.924 207.241C170.392 207.328 169.805 207.371 169.162 207.371C167.986 207.371 166.96 207.179 166.081 206.796C165.216 206.4 164.548 205.769 164.078 204.903C163.608 204.037 163.372 202.899 163.372 201.489V181.97ZM184.452 207.371C182.893 207.371 181.495 207.124 180.258 206.629C179.021 206.122 177.97 205.423 177.104 204.532C176.251 203.642 175.595 202.609 175.137 201.434C174.68 200.246 174.451 198.984 174.451 197.648V196.906C174.451 195.385 174.667 193.993 175.1 192.731C175.533 191.47 176.152 190.375 176.956 189.447C177.772 188.52 178.762 187.808 179.924 187.313C181.087 186.806 182.398 186.553 183.858 186.553C185.28 186.553 186.542 186.788 187.643 187.258C188.744 187.728 189.666 188.396 190.408 189.262C191.162 190.128 191.731 191.167 192.115 192.379C192.498 193.579 192.69 194.915 192.69 196.387V198.613H176.733V195.051H187.439V194.643C187.439 193.9 187.303 193.239 187.031 192.657C186.771 192.063 186.375 191.593 185.843 191.247C185.311 190.901 184.631 190.728 183.802 190.728C183.097 190.728 182.491 190.882 181.984 191.191C181.477 191.501 181.062 191.934 180.741 192.49C180.432 193.047 180.196 193.702 180.036 194.457C179.887 195.199 179.813 196.016 179.813 196.906V197.648C179.813 198.452 179.924 199.195 180.147 199.875C180.382 200.555 180.71 201.143 181.13 201.638C181.563 202.132 182.083 202.516 182.689 202.788C183.307 203.06 184.006 203.196 184.786 203.196C185.751 203.196 186.647 203.011 187.476 202.64C188.317 202.256 189.041 201.681 189.647 200.914L192.245 203.734C191.824 204.34 191.249 204.922 190.519 205.479C189.802 206.035 188.936 206.493 187.921 206.852C186.907 207.198 185.751 207.371 184.452 207.371ZM204.028 203.196C204.684 203.196 205.265 203.073 205.772 202.825C206.279 202.565 206.675 202.207 206.96 201.749C207.256 201.279 207.411 200.729 207.423 200.098H212.452C212.439 201.508 212.062 202.763 211.32 203.864C210.578 204.953 209.582 205.812 208.333 206.443C207.083 207.062 205.685 207.371 204.139 207.371C202.581 207.371 201.22 207.111 200.057 206.592C198.907 206.072 197.948 205.355 197.181 204.439C196.414 203.512 195.839 202.436 195.456 201.211C195.072 199.974 194.88 198.65 194.88 197.24V196.702C194.88 195.28 195.072 193.956 195.456 192.731C195.839 191.494 196.414 190.418 197.181 189.503C197.948 188.575 198.907 187.852 200.057 187.332C201.208 186.812 202.556 186.553 204.102 186.553C205.747 186.553 207.188 186.868 208.425 187.499C209.675 188.13 210.652 189.033 211.357 190.208C212.074 191.371 212.439 192.75 212.452 194.346H207.423C207.411 193.678 207.269 193.072 206.997 192.527C206.737 191.983 206.353 191.55 205.846 191.229C205.352 190.895 204.739 190.728 204.009 190.728C203.23 190.728 202.593 190.895 202.098 191.229C201.603 191.55 201.22 191.995 200.948 192.564C200.676 193.121 200.484 193.758 200.373 194.476C200.274 195.181 200.224 195.923 200.224 196.702V197.24C200.224 198.02 200.274 198.768 200.373 199.485C200.472 200.203 200.657 200.84 200.929 201.396C201.214 201.953 201.603 202.392 202.098 202.714C202.593 203.035 203.236 203.196 204.028 203.196ZM225.385 186.924V190.709H213.696V186.924H225.385ZM216.591 181.97H221.934V200.951C221.934 201.533 222.008 201.978 222.157 202.287C222.318 202.596 222.553 202.813 222.862 202.937C223.171 203.048 223.561 203.104 224.031 203.104C224.365 203.104 224.662 203.091 224.922 203.066C225.194 203.029 225.423 202.992 225.608 202.955L225.627 206.889C225.169 207.037 224.674 207.155 224.142 207.241C223.61 207.328 223.023 207.371 222.38 207.371C221.204 207.371 220.178 207.179 219.3 206.796C218.434 206.4 217.766 205.769 217.296 204.903C216.826 204.037 216.591 202.899 216.591 201.489V181.97ZM240.304 202.194V186.924H245.648V207H240.62L240.304 202.194ZM240.898 198.075L242.475 198.038C242.475 199.374 242.321 200.617 242.012 201.768C241.702 202.906 241.238 203.895 240.62 204.736C240.001 205.565 239.222 206.215 238.282 206.685C237.342 207.142 236.235 207.371 234.961 207.371C233.984 207.371 233.081 207.235 232.252 206.963C231.435 206.678 230.73 206.239 230.137 205.646C229.555 205.039 229.097 204.266 228.763 203.326C228.442 202.374 228.281 201.229 228.281 199.894V186.924H233.625V199.931C233.625 200.524 233.693 201.025 233.829 201.434C233.977 201.842 234.181 202.176 234.441 202.436C234.701 202.695 235.004 202.881 235.35 202.992C235.709 203.104 236.105 203.159 236.538 203.159C237.639 203.159 238.505 202.937 239.136 202.491C239.779 202.046 240.23 201.44 240.49 200.673C240.762 199.894 240.898 199.028 240.898 198.075ZM255.075 191.303V207H249.731V186.924H254.76L255.075 191.303ZM261.124 186.794L261.031 191.748C260.771 191.711 260.456 191.68 260.085 191.655C259.726 191.618 259.398 191.6 259.101 191.6C258.347 191.6 257.691 191.699 257.135 191.896C256.59 192.082 256.133 192.36 255.762 192.731C255.403 193.103 255.131 193.554 254.945 194.086C254.772 194.618 254.673 195.224 254.648 195.904L253.572 195.57C253.572 194.271 253.702 193.078 253.962 191.989C254.222 190.888 254.599 189.93 255.094 189.113C255.601 188.297 256.219 187.666 256.949 187.221C257.679 186.775 258.514 186.553 259.454 186.553C259.751 186.553 260.054 186.577 260.363 186.627C260.672 186.664 260.926 186.72 261.124 186.794ZM272.518 207.371C270.959 207.371 269.561 207.124 268.324 206.629C267.087 206.122 266.036 205.423 265.17 204.532C264.316 203.642 263.661 202.609 263.203 201.434C262.745 200.246 262.517 198.984 262.517 197.648V196.906C262.517 195.385 262.733 193.993 263.166 192.731C263.599 191.47 264.217 190.375 265.021 189.447C265.838 188.52 266.827 187.808 267.99 187.313C269.153 186.806 270.464 186.553 271.924 186.553C273.346 186.553 274.608 186.788 275.709 187.258C276.81 187.728 277.731 188.396 278.474 189.262C279.228 190.128 279.797 191.167 280.181 192.379C280.564 193.579 280.756 194.915 280.756 196.387V198.613H264.799V195.051H275.505V194.643C275.505 193.9 275.369 193.239 275.097 192.657C274.837 192.063 274.441 191.593 273.909 191.247C273.377 190.901 272.697 190.728 271.868 190.728C271.163 190.728 270.557 190.882 270.05 191.191C269.543 191.501 269.128 191.934 268.807 192.49C268.497 193.047 268.262 193.702 268.102 194.457C267.953 195.199 267.879 196.016 267.879 196.906V197.648C267.879 198.452 267.99 199.195 268.213 199.875C268.448 200.555 268.776 201.143 269.196 201.638C269.629 202.132 270.149 202.516 270.755 202.788C271.373 203.06 272.072 203.196 272.852 203.196C273.816 203.196 274.713 203.011 275.542 202.64C276.383 202.256 277.107 201.681 277.713 200.914L280.311 203.734C279.89 204.34 279.315 204.922 278.585 205.479C277.867 206.035 277.002 206.493 275.987 206.852C274.973 207.198 273.816 207.371 272.518 207.371ZM300.073 207H294.693V185.143C294.693 183.621 294.989 182.341 295.583 181.302C296.189 180.25 297.037 179.459 298.125 178.927C299.226 178.382 300.531 178.11 302.04 178.11C302.535 178.11 303.011 178.147 303.469 178.222C303.927 178.284 304.372 178.364 304.805 178.463L304.749 182.489C304.514 182.427 304.267 182.384 304.007 182.359C303.747 182.335 303.444 182.322 303.098 182.322C302.455 182.322 301.904 182.434 301.446 182.656C301.001 182.867 300.661 183.182 300.426 183.603C300.191 184.023 300.073 184.536 300.073 185.143V207ZM304.081 186.924V190.709H291.705V186.924H304.081ZM306.03 197.166V196.776C306.03 195.304 306.241 193.95 306.661 192.713C307.082 191.464 307.694 190.381 308.498 189.466C309.302 188.55 310.292 187.839 311.467 187.332C312.642 186.812 313.99 186.553 315.512 186.553C317.033 186.553 318.388 186.812 319.575 187.332C320.763 187.839 321.759 188.55 322.563 189.466C323.379 190.381 323.998 191.464 324.418 192.713C324.839 193.95 325.049 195.304 325.049 196.776V197.166C325.049 198.626 324.839 199.98 324.418 201.229C323.998 202.466 323.379 203.549 322.563 204.477C321.759 205.392 320.769 206.103 319.594 206.61C318.419 207.118 317.071 207.371 315.549 207.371C314.028 207.371 312.673 207.118 311.486 206.61C310.31 206.103 309.315 205.392 308.498 204.477C307.694 203.549 307.082 202.466 306.661 201.229C306.241 199.98 306.03 198.626 306.03 197.166ZM311.374 196.776V197.166C311.374 198.007 311.448 198.793 311.597 199.522C311.745 200.252 311.98 200.896 312.302 201.452C312.636 201.996 313.069 202.423 313.601 202.732C314.133 203.042 314.782 203.196 315.549 203.196C316.291 203.196 316.928 203.042 317.46 202.732C317.992 202.423 318.419 201.996 318.74 201.452C319.062 200.896 319.297 200.252 319.446 199.522C319.606 198.793 319.687 198.007 319.687 197.166V196.776C319.687 195.96 319.606 195.193 319.446 194.476C319.297 193.746 319.056 193.103 318.722 192.546C318.4 191.977 317.974 191.532 317.442 191.21C316.91 190.888 316.266 190.728 315.512 190.728C314.757 190.728 314.114 190.888 313.582 191.21C313.063 191.532 312.636 191.977 312.302 192.546C311.98 193.103 311.745 193.746 311.597 194.476C311.448 195.193 311.374 195.96 311.374 196.776ZM333.678 191.303V207H328.334V186.924H333.363L333.678 191.303ZM339.727 186.794L339.634 191.748C339.374 191.711 339.059 191.68 338.688 191.655C338.329 191.618 338.001 191.6 337.704 191.6C336.95 191.6 336.294 191.699 335.738 191.896C335.193 192.082 334.736 192.36 334.365 192.731C334.006 193.103 333.734 193.554 333.548 194.086C333.375 194.618 333.276 195.224 333.251 195.904L332.175 195.57C332.175 194.271 332.305 193.078 332.565 191.989C332.825 190.888 333.202 189.93 333.697 189.113C334.204 188.297 334.822 187.666 335.552 187.221C336.282 186.775 337.117 186.553 338.057 186.553C338.354 186.553 338.657 186.577 338.966 186.627C339.275 186.664 339.529 186.72 339.727 186.794ZM81.9121 234.924V238.709H70.2227V234.924H81.9121ZM73.1172 229.97H78.4609V248.951C78.4609 249.533 78.5352 249.978 78.6836 250.287C78.8444 250.596 79.0794 250.813 79.3887 250.937C79.6979 251.048 80.0876 251.104 80.5576 251.104C80.8916 251.104 81.1885 251.091 81.4482 251.066C81.7204 251.029 81.9492 250.992 82.1348 250.955L82.1533 254.889C81.6956 255.037 81.2008 255.155 80.6689 255.241C80.137 255.328 79.5495 255.371 78.9062 255.371C77.7311 255.371 76.7044 255.179 75.8262 254.796C74.9603 254.4 74.2923 253.769 73.8223 252.903C73.3522 252.037 73.1172 250.899 73.1172 249.489V229.97ZM90.17 226.5V255H84.8263V226.5H90.17ZM89.4093 244.257H87.9434C87.9558 242.859 88.1414 241.573 88.5001 240.397C88.8588 239.21 89.3722 238.183 90.0401 237.317C90.7081 236.439 91.5059 235.759 92.4337 235.276C93.3738 234.794 94.4128 234.553 95.5509 234.553C96.5404 234.553 97.4373 234.695 98.2413 234.979C99.0577 235.252 99.7566 235.697 100.338 236.315C100.932 236.922 101.389 237.719 101.711 238.709C102.033 239.699 102.193 240.898 102.193 242.309V255H96.8126V242.271C96.8126 241.381 96.6827 240.682 96.4229 240.175C96.1755 239.655 95.8106 239.29 95.3282 239.08C94.8582 238.857 94.2768 238.746 93.5841 238.746C92.8171 238.746 92.1615 238.888 91.6173 239.173C91.0854 239.457 90.6586 239.853 90.337 240.36C90.0154 240.855 89.7804 241.437 89.6319 242.104C89.4835 242.772 89.4093 243.49 89.4093 244.257ZM115.498 255.371C113.94 255.371 112.542 255.124 111.305 254.629C110.068 254.122 109.016 253.423 108.151 252.532C107.297 251.642 106.641 250.609 106.184 249.434C105.726 248.246 105.497 246.984 105.497 245.648V244.906C105.497 243.385 105.714 241.993 106.147 240.731C106.58 239.47 107.198 238.375 108.002 237.447C108.819 236.52 109.808 235.808 110.971 235.313C112.134 234.806 113.445 234.553 114.904 234.553C116.327 234.553 117.589 234.788 118.69 235.258C119.791 235.728 120.712 236.396 121.454 237.262C122.209 238.128 122.778 239.167 123.161 240.379C123.545 241.579 123.736 242.915 123.736 244.387V246.613H107.779V243.051H118.486V242.643C118.486 241.9 118.349 241.239 118.077 240.657C117.818 240.063 117.422 239.593 116.89 239.247C116.358 238.901 115.678 238.728 114.849 238.728C114.144 238.728 113.538 238.882 113.03 239.191C112.523 239.501 112.109 239.934 111.787 240.49C111.478 241.047 111.243 241.702 111.082 242.457C110.934 243.199 110.86 244.016 110.86 244.906V245.648C110.86 246.452 110.971 247.195 111.194 247.875C111.429 248.555 111.756 249.143 112.177 249.638C112.61 250.132 113.129 250.516 113.736 250.788C114.354 251.06 115.053 251.196 115.832 251.196C116.797 251.196 117.694 251.011 118.523 250.64C119.364 250.256 120.087 249.681 120.694 248.914L123.291 251.734C122.871 252.34 122.295 252.922 121.566 253.479C120.848 254.035 119.982 254.493 118.968 254.852C117.954 255.198 116.797 255.371 115.498 255.371ZM147.08 250.473V241.529C147.08 240.886 146.975 240.336 146.765 239.878C146.555 239.408 146.227 239.043 145.782 238.783C145.349 238.523 144.786 238.394 144.093 238.394C143.499 238.394 142.986 238.499 142.553 238.709C142.12 238.907 141.786 239.198 141.551 239.581C141.316 239.952 141.199 240.391 141.199 240.898H135.855C135.855 240.045 136.053 239.235 136.449 238.468C136.844 237.701 137.42 237.027 138.174 236.445C138.929 235.852 139.826 235.388 140.865 235.054C141.916 234.72 143.091 234.553 144.39 234.553C145.949 234.553 147.334 234.812 148.546 235.332C149.758 235.852 150.711 236.631 151.404 237.67C152.109 238.709 152.461 240.008 152.461 241.566V250.157C152.461 251.258 152.529 252.161 152.665 252.866C152.801 253.559 152.999 254.165 153.259 254.685V255H147.86C147.6 254.456 147.402 253.775 147.266 252.959C147.142 252.13 147.08 251.301 147.08 250.473ZM147.785 242.772L147.823 245.797H144.835C144.13 245.797 143.518 245.877 142.998 246.038C142.479 246.199 142.052 246.428 141.718 246.725C141.384 247.009 141.137 247.343 140.976 247.727C140.827 248.11 140.753 248.531 140.753 248.988C140.753 249.446 140.858 249.86 141.069 250.231C141.279 250.59 141.582 250.875 141.978 251.085C142.374 251.283 142.838 251.382 143.369 251.382C144.174 251.382 144.872 251.221 145.466 250.899C146.06 250.578 146.518 250.182 146.839 249.712C147.173 249.242 147.346 248.797 147.359 248.376L148.769 250.64C148.571 251.147 148.299 251.673 147.952 252.217C147.619 252.761 147.192 253.274 146.672 253.757C146.153 254.227 145.528 254.617 144.798 254.926C144.068 255.223 143.202 255.371 142.201 255.371C140.926 255.371 139.77 255.118 138.731 254.61C137.704 254.091 136.888 253.38 136.282 252.477C135.688 251.561 135.391 250.522 135.391 249.359C135.391 248.308 135.589 247.374 135.985 246.558C136.381 245.741 136.962 245.055 137.729 244.498C138.508 243.929 139.479 243.502 140.642 243.218C141.805 242.921 143.153 242.772 144.687 242.772H147.785ZM164.875 251.196C165.531 251.196 166.112 251.073 166.62 250.825C167.127 250.565 167.523 250.207 167.807 249.749C168.104 249.279 168.259 248.729 168.271 248.098H173.299C173.287 249.508 172.91 250.763 172.167 251.864C171.425 252.953 170.429 253.812 169.18 254.443C167.931 255.062 166.533 255.371 164.987 255.371C163.428 255.371 162.067 255.111 160.905 254.592C159.754 254.072 158.796 253.355 158.029 252.439C157.262 251.512 156.687 250.436 156.303 249.211C155.92 247.974 155.728 246.65 155.728 245.24V244.702C155.728 243.28 155.92 241.956 156.303 240.731C156.687 239.494 157.262 238.418 158.029 237.503C158.796 236.575 159.754 235.852 160.905 235.332C162.055 234.812 163.403 234.553 164.95 234.553C166.595 234.553 168.036 234.868 169.273 235.499C170.522 236.13 171.499 237.033 172.205 238.208C172.922 239.371 173.287 240.75 173.299 242.346H168.271C168.259 241.678 168.116 241.072 167.844 240.527C167.584 239.983 167.201 239.55 166.694 239.229C166.199 238.895 165.587 238.728 164.857 238.728C164.078 238.728 163.441 238.895 162.946 239.229C162.451 239.55 162.067 239.995 161.795 240.564C161.523 241.121 161.331 241.758 161.22 242.476C161.121 243.181 161.072 243.923 161.072 244.702V245.24C161.072 246.02 161.121 246.768 161.22 247.485C161.319 248.203 161.505 248.84 161.777 249.396C162.061 249.953 162.451 250.392 162.946 250.714C163.441 251.035 164.084 251.196 164.875 251.196ZM186.233 234.924V238.709H174.543V234.924H186.233ZM177.438 229.97H182.782V248.951C182.782 249.533 182.856 249.978 183.004 250.287C183.165 250.596 183.4 250.813 183.709 250.937C184.019 251.048 184.408 251.104 184.878 251.104C185.212 251.104 185.509 251.091 185.769 251.066C186.041 251.029 186.27 250.992 186.456 250.955L186.474 254.889C186.016 255.037 185.522 255.155 184.99 255.241C184.458 255.328 183.87 255.371 183.227 255.371C182.052 255.371 181.025 255.179 180.147 254.796C179.281 254.4 178.613 253.769 178.143 252.903C177.673 252.037 177.438 250.899 177.438 249.489V229.97ZM194.918 234.924V255H189.555V234.924H194.918ZM189.221 229.691C189.221 228.912 189.493 228.269 190.038 227.762C190.582 227.255 191.312 227.001 192.227 227.001C193.13 227.001 193.854 227.255 194.398 227.762C194.955 228.269 195.233 228.912 195.233 229.691C195.233 230.471 194.955 231.114 194.398 231.621C193.854 232.128 193.13 232.382 192.227 232.382C191.312 232.382 190.582 232.128 190.038 231.621C189.493 231.114 189.221 230.471 189.221 229.691ZM206.163 251.104L210.616 234.924H216.201L209.428 255H206.051L206.163 251.104ZM203.101 234.924L207.573 251.122L207.666 255H204.27L197.498 234.924H203.101ZM227.576 255.371C226.017 255.371 224.62 255.124 223.383 254.629C222.146 254.122 221.094 253.423 220.228 252.532C219.375 251.642 218.719 250.609 218.262 249.434C217.804 248.246 217.575 246.984 217.575 245.648V244.906C217.575 243.385 217.791 241.993 218.224 240.731C218.657 239.47 219.276 238.375 220.08 237.447C220.896 236.52 221.886 235.808 223.049 235.313C224.211 234.806 225.523 234.553 226.982 234.553C228.405 234.553 229.666 234.788 230.767 235.258C231.868 235.728 232.79 236.396 233.532 237.262C234.287 238.128 234.856 239.167 235.239 240.379C235.623 241.579 235.814 242.915 235.814 244.387V246.613H219.857V243.051H230.563V242.643C230.563 241.9 230.427 241.239 230.155 240.657C229.895 240.063 229.499 239.593 228.968 239.247C228.436 238.901 227.755 238.728 226.927 238.728C226.221 238.728 225.615 238.882 225.108 239.191C224.601 239.501 224.187 239.934 223.865 240.49C223.556 241.047 223.321 241.702 223.16 242.457C223.012 243.199 222.937 244.016 222.937 244.906V245.648C222.937 246.452 223.049 247.195 223.271 247.875C223.506 248.555 223.834 249.143 224.255 249.638C224.688 250.132 225.207 250.516 225.813 250.788C226.432 251.06 227.131 251.196 227.91 251.196C228.875 251.196 229.772 251.011 230.6 250.64C231.442 250.256 232.165 249.681 232.771 248.914L235.369 251.734C234.948 252.34 234.373 252.922 233.643 253.479C232.926 254.035 232.06 254.493 231.046 254.852C230.031 255.198 228.875 255.371 227.576 255.371ZM253.666 239.08V255H248.304V234.924H253.332L253.666 239.08ZM252.924 244.257H251.439C251.439 242.859 251.606 241.573 251.94 240.397C252.287 239.21 252.788 238.183 253.443 237.317C254.111 236.439 254.934 235.759 255.911 235.276C256.888 234.794 258.02 234.553 259.307 234.553C260.197 234.553 261.014 234.689 261.756 234.961C262.498 235.221 263.135 235.635 263.667 236.204C264.211 236.761 264.632 237.491 264.929 238.394C265.226 239.284 265.374 240.354 265.374 241.604V255H260.03V242.197C260.03 241.282 259.907 240.577 259.659 240.082C259.412 239.587 259.059 239.241 258.602 239.043C258.156 238.845 257.618 238.746 256.987 238.746C256.295 238.746 255.688 238.888 255.169 239.173C254.662 239.457 254.241 239.853 253.907 240.36C253.573 240.855 253.326 241.437 253.165 242.104C253.004 242.772 252.924 243.49 252.924 244.257ZM264.873 243.645L262.962 243.886C262.962 242.575 263.123 241.356 263.444 240.23C263.778 239.105 264.267 238.115 264.91 237.262C265.566 236.408 266.376 235.746 267.341 235.276C268.306 234.794 269.419 234.553 270.681 234.553C271.645 234.553 272.524 234.695 273.315 234.979C274.107 235.252 274.781 235.691 275.338 236.297C275.907 236.891 276.34 237.67 276.637 238.635C276.946 239.6 277.101 240.781 277.101 242.179V255H271.738V242.179C271.738 241.251 271.615 240.546 271.367 240.063C271.132 239.569 270.786 239.229 270.328 239.043C269.883 238.845 269.351 238.746 268.732 238.746C268.089 238.746 267.526 238.876 267.044 239.136C266.561 239.383 266.159 239.729 265.838 240.175C265.516 240.62 265.275 241.14 265.114 241.733C264.953 242.315 264.873 242.952 264.873 243.645ZM286.88 234.924V255H281.518V234.924H286.88ZM281.184 229.691C281.184 228.912 281.456 228.269 282 227.762C282.544 227.255 283.274 227.001 284.189 227.001C285.092 227.001 285.816 227.255 286.36 227.762C286.917 228.269 287.195 228.912 287.195 229.691C287.195 230.471 286.917 231.114 286.36 231.621C285.816 232.128 285.092 232.382 284.189 232.382C283.274 232.382 282.544 232.128 282 231.621C281.456 231.114 281.184 230.471 281.184 229.691ZM296.529 239.21V255H291.186V234.924H296.195L296.529 239.21ZM295.75 244.257H294.303C294.303 242.772 294.495 241.437 294.878 240.249C295.262 239.049 295.8 238.029 296.492 237.188C297.185 236.334 298.008 235.685 298.96 235.239C299.925 234.782 301.001 234.553 302.189 234.553C303.129 234.553 303.988 234.689 304.768 234.961C305.547 235.233 306.215 235.666 306.772 236.26C307.341 236.854 307.774 237.639 308.07 238.616C308.38 239.593 308.534 240.787 308.534 242.197V255H303.153V242.179C303.153 241.288 303.03 240.595 302.782 240.101C302.535 239.606 302.17 239.259 301.688 239.062C301.218 238.851 300.636 238.746 299.943 238.746C299.226 238.746 298.601 238.888 298.069 239.173C297.55 239.457 297.117 239.853 296.771 240.36C296.437 240.855 296.183 241.437 296.01 242.104C295.837 242.772 295.75 243.49 295.75 244.257ZM324.455 250.621V226.5H329.836V255H324.993L324.455 250.621ZM311.764 245.203V244.813C311.764 243.28 311.937 241.888 312.283 240.639C312.63 239.377 313.137 238.295 313.805 237.392C314.473 236.489 315.295 235.79 316.273 235.295C317.25 234.8 318.363 234.553 319.613 234.553C320.788 234.553 321.814 234.8 322.693 235.295C323.583 235.79 324.338 236.495 324.956 237.41C325.587 238.313 326.094 239.383 326.478 240.62C326.861 241.845 327.14 243.187 327.313 244.646V245.5C327.14 246.898 326.861 248.197 326.478 249.396C326.094 250.596 325.587 251.648 324.956 252.551C324.338 253.441 323.583 254.134 322.693 254.629C321.802 255.124 320.763 255.371 319.575 255.371C318.326 255.371 317.213 255.118 316.236 254.61C315.271 254.103 314.454 253.392 313.786 252.477C313.131 251.561 312.63 250.485 312.283 249.248C311.937 248.011 311.764 246.663 311.764 245.203ZM317.108 244.813V245.203C317.108 246.032 317.169 246.805 317.293 247.522C317.429 248.24 317.646 248.877 317.943 249.434C318.252 249.978 318.648 250.405 319.13 250.714C319.625 251.011 320.225 251.159 320.93 251.159C321.845 251.159 322.6 250.955 323.194 250.547C323.787 250.126 324.239 249.551 324.548 248.821C324.87 248.091 325.055 247.25 325.105 246.298V243.867C325.068 243.088 324.956 242.389 324.771 241.771C324.598 241.14 324.338 240.602 323.991 240.156C323.657 239.711 323.237 239.365 322.73 239.117C322.235 238.87 321.647 238.746 320.967 238.746C320.274 238.746 319.681 238.907 319.186 239.229C318.691 239.538 318.289 239.965 317.98 240.509C317.683 241.053 317.46 241.696 317.312 242.438C317.176 243.168 317.108 243.96 317.108 244.813Z" fill="white"/>
<path d="M79.2969 376.07H74.1602L73.1836 379H70.0684L75.3613 364.781H78.0762L83.3984 379H80.2832L79.2969 376.07ZM74.9512 373.697H78.5059L76.7188 368.375L74.9512 373.697ZM84.1026 373.639C84.1026 371.992 84.4705 370.68 85.2061 369.703C85.9483 368.727 86.9607 368.238 88.2432 368.238C89.2719 368.238 90.1215 368.622 90.7921 369.391V364H93.6241V379H91.0753L90.9386 377.877C90.2354 378.756 89.3305 379.195 88.2237 379.195C86.9802 379.195 85.9809 378.707 85.2257 377.73C84.477 376.747 84.1026 375.383 84.1026 373.639ZM86.9249 373.844C86.9249 374.833 87.0974 375.592 87.4425 376.119C87.7875 376.646 88.2888 376.91 88.9464 376.91C89.8188 376.91 90.434 376.542 90.7921 375.807V371.637C90.4405 370.901 89.8318 370.533 88.9659 370.533C87.6052 370.533 86.9249 371.637 86.9249 373.844ZM95.3732 373.639C95.3732 371.992 95.7411 370.68 96.4767 369.703C97.2189 368.727 98.2313 368.238 99.5138 368.238C100.542 368.238 101.392 368.622 102.063 369.391V364H104.895V379H102.346L102.209 377.877C101.506 378.756 100.601 379.195 99.4943 379.195C98.2508 379.195 97.2515 378.707 96.4963 377.73C95.7476 376.747 95.3732 375.383 95.3732 373.639ZM98.1955 373.844C98.1955 374.833 98.368 375.592 98.7131 376.119C99.0581 376.646 99.5594 376.91 100.217 376.91C101.089 376.91 101.705 376.542 102.063 375.807V371.637C101.711 370.901 101.102 370.533 100.236 370.533C98.8758 370.533 98.1955 371.637 98.1955 373.844ZM113.021 371.08C112.637 371.028 112.298 371.002 112.005 371.002C110.937 371.002 110.238 371.363 109.906 372.086V379H107.083V368.434H109.749L109.827 369.693C110.394 368.723 111.178 368.238 112.181 368.238C112.493 368.238 112.786 368.281 113.06 368.365L113.021 371.08ZM119.057 379.195C117.508 379.195 116.244 378.72 115.268 377.77C114.298 376.819 113.813 375.553 113.813 373.971V373.697C113.813 372.636 114.018 371.689 114.428 370.855C114.838 370.016 115.418 369.371 116.166 368.922C116.922 368.466 117.781 368.238 118.744 368.238C120.19 368.238 121.326 368.694 122.153 369.605C122.986 370.517 123.403 371.809 123.403 373.482V374.635H116.674C116.765 375.325 117.039 375.878 117.494 376.295C117.957 376.712 118.539 376.92 119.243 376.92C120.33 376.92 121.179 376.526 121.791 375.738L123.178 377.291C122.755 377.89 122.182 378.359 121.459 378.697C120.737 379.029 119.936 379.195 119.057 379.195ZM118.735 370.523C118.175 370.523 117.719 370.712 117.368 371.09C117.022 371.467 116.801 372.008 116.703 372.711H120.629V372.486C120.616 371.861 120.447 371.38 120.121 371.041C119.796 370.696 119.334 370.523 118.735 370.523ZM130.738 376.08C130.738 375.735 130.565 375.465 130.22 375.27C129.882 375.068 129.335 374.889 128.58 374.732C126.067 374.205 124.81 373.137 124.81 371.529C124.81 370.592 125.197 369.811 125.972 369.186C126.753 368.554 127.772 368.238 129.029 368.238C130.37 368.238 131.441 368.554 132.242 369.186C133.049 369.817 133.453 370.637 133.453 371.646H130.63C130.63 371.243 130.5 370.911 130.24 370.65C129.979 370.383 129.572 370.25 129.019 370.25C128.544 370.25 128.176 370.357 127.915 370.572C127.655 370.787 127.525 371.061 127.525 371.393C127.525 371.705 127.671 371.959 127.964 372.154C128.264 372.343 128.765 372.509 129.468 372.652C130.171 372.789 130.764 372.945 131.246 373.121C132.736 373.668 133.482 374.615 133.482 375.963C133.482 376.926 133.068 377.708 132.242 378.307C131.415 378.899 130.347 379.195 129.039 379.195C128.153 379.195 127.365 379.039 126.675 378.727C125.992 378.408 125.455 377.975 125.064 377.428C124.673 376.874 124.478 376.279 124.478 375.641H127.154C127.18 376.142 127.365 376.526 127.71 376.793C128.055 377.06 128.518 377.193 129.097 377.193C129.637 377.193 130.044 377.092 130.318 376.891C130.598 376.682 130.738 376.412 130.738 376.08ZM141.032 376.08C141.032 375.735 140.859 375.465 140.514 375.27C140.176 375.068 139.629 374.889 138.874 374.732C136.361 374.205 135.104 373.137 135.104 371.529C135.104 370.592 135.491 369.811 136.266 369.186C137.047 368.554 138.066 368.238 139.323 368.238C140.664 368.238 141.735 368.554 142.536 369.186C143.343 369.817 143.747 370.637 143.747 371.646H140.924C140.924 371.243 140.794 370.911 140.534 370.65C140.273 370.383 139.866 370.25 139.313 370.25C138.838 370.25 138.47 370.357 138.209 370.572C137.949 370.787 137.819 371.061 137.819 371.393C137.819 371.705 137.965 371.959 138.258 372.154C138.558 372.343 139.059 372.509 139.762 372.652C140.465 372.789 141.058 372.945 141.54 373.121C143.03 373.668 143.776 374.615 143.776 375.963C143.776 376.926 143.362 377.708 142.536 378.307C141.709 378.899 140.641 379.195 139.333 379.195C138.447 379.195 137.659 379.039 136.969 378.727C136.286 378.408 135.749 377.975 135.358 377.428C134.967 376.874 134.772 376.279 134.772 375.641H137.448C137.474 376.142 137.659 376.526 138.004 376.793C138.349 377.06 138.812 377.193 139.391 377.193C139.932 377.193 140.338 377.092 140.612 376.891C140.892 376.682 141.032 376.412 141.032 376.08ZM148.582 379H145.75V368.434H148.582V379ZM145.584 365.699C145.584 365.276 145.724 364.928 146.004 364.654C146.29 364.381 146.677 364.244 147.166 364.244C147.647 364.244 148.032 364.381 148.318 364.654C148.604 364.928 148.748 365.276 148.748 365.699C148.748 366.129 148.601 366.48 148.308 366.754C148.022 367.027 147.641 367.164 147.166 367.164C146.69 367.164 146.306 367.027 146.013 366.754C145.727 366.48 145.584 366.129 145.584 365.699ZM153.514 368.434L153.602 369.654C154.357 368.71 155.37 368.238 156.639 368.238C157.759 368.238 158.592 368.567 159.139 369.225C159.686 369.882 159.966 370.865 159.979 372.174V379H157.157V372.242C157.157 371.643 157.027 371.21 156.766 370.943C156.506 370.67 156.073 370.533 155.467 370.533C154.673 370.533 154.078 370.872 153.68 371.549V379H150.858V368.434H153.514ZM161.719 373.639C161.719 372.018 162.103 370.712 162.871 369.723C163.646 368.733 164.687 368.238 165.996 368.238C167.155 368.238 168.056 368.635 168.701 369.43L168.818 368.434H171.377V378.648C171.377 379.573 171.165 380.377 170.742 381.061C170.325 381.744 169.736 382.265 168.974 382.623C168.213 382.981 167.321 383.16 166.299 383.16C165.524 383.16 164.769 383.004 164.033 382.691C163.297 382.385 162.741 381.988 162.363 381.5L163.613 379.781C164.316 380.569 165.169 380.963 166.172 380.963C166.92 380.963 167.503 380.761 167.92 380.357C168.336 379.96 168.545 379.394 168.545 378.658V378.092C167.894 378.827 167.038 379.195 165.976 379.195C164.707 379.195 163.678 378.701 162.89 377.711C162.109 376.715 161.719 375.396 161.719 373.756V373.639ZM164.541 373.844C164.541 374.801 164.733 375.553 165.117 376.1C165.501 376.64 166.028 376.91 166.699 376.91C167.558 376.91 168.174 376.588 168.545 375.943V371.5C168.167 370.855 167.558 370.533 166.719 370.533C166.041 370.533 165.508 370.81 165.117 371.363C164.733 371.917 164.541 372.743 164.541 373.844ZM181.184 368.434L181.271 369.615C182.02 368.697 183.033 368.238 184.309 368.238C185.669 368.238 186.603 368.775 187.111 369.85C187.853 368.775 188.911 368.238 190.285 368.238C191.431 368.238 192.284 368.574 192.844 369.244C193.404 369.908 193.684 370.911 193.684 372.252V379H190.852V372.262C190.852 371.663 190.734 371.227 190.5 370.953C190.266 370.673 189.852 370.533 189.26 370.533C188.413 370.533 187.827 370.937 187.502 371.744L187.512 379H184.689V372.271C184.689 371.66 184.569 371.217 184.328 370.943C184.087 370.67 183.677 370.533 183.098 370.533C182.297 370.533 181.717 370.865 181.359 371.529V379H178.537V368.434H181.184ZM200.726 379.195C199.176 379.195 197.913 378.72 196.937 377.77C195.967 376.819 195.481 375.553 195.481 373.971V373.697C195.481 372.636 195.687 371.689 196.097 370.855C196.507 370.016 197.086 369.371 197.835 368.922C198.59 368.466 199.45 368.238 200.413 368.238C201.858 368.238 202.995 368.694 203.821 369.605C204.655 370.517 205.071 371.809 205.071 373.482V374.635H198.343C198.434 375.325 198.707 375.878 199.163 376.295C199.625 376.712 200.208 376.92 200.911 376.92C201.998 376.92 202.848 376.526 203.46 375.738L204.847 377.291C204.424 377.89 203.851 378.359 203.128 378.697C202.405 379.029 201.605 379.195 200.726 379.195ZM200.403 370.523C199.843 370.523 199.388 370.712 199.036 371.09C198.691 371.467 198.47 372.008 198.372 372.711H202.298V372.486C202.285 371.861 202.116 371.38 201.79 371.041C201.465 370.696 201.002 370.523 200.403 370.523ZM209.281 368.434L209.369 369.654C210.124 368.71 211.137 368.238 212.406 368.238C213.526 368.238 214.359 368.567 214.906 369.225C215.453 369.882 215.733 370.865 215.746 372.174V379H212.924V372.242C212.924 371.643 212.794 371.21 212.533 370.943C212.273 370.67 211.84 370.533 211.234 370.533C210.44 370.533 209.845 370.872 209.447 371.549V379H206.625V368.434H209.281ZM221.275 365.836V368.434H223.081V370.504H221.275V375.777C221.275 376.168 221.349 376.448 221.499 376.617C221.649 376.786 221.935 376.871 222.359 376.871C222.671 376.871 222.948 376.848 223.189 376.803V378.941C222.635 379.111 222.066 379.195 221.48 379.195C219.501 379.195 218.491 378.196 218.452 376.197V370.504H216.909V368.434H218.452V365.836H221.275ZM230.778 379C230.647 378.746 230.553 378.43 230.494 378.053C229.811 378.814 228.922 379.195 227.828 379.195C226.793 379.195 225.934 378.896 225.25 378.297C224.573 377.698 224.235 376.943 224.235 376.031C224.235 374.911 224.648 374.052 225.475 373.453C226.308 372.854 227.509 372.551 229.078 372.545H230.377V371.939C230.377 371.451 230.25 371.061 229.996 370.768C229.749 370.475 229.355 370.328 228.815 370.328C228.339 370.328 227.965 370.442 227.692 370.67C227.425 370.898 227.291 371.21 227.291 371.607H224.469C224.469 370.995 224.658 370.429 225.035 369.908C225.413 369.387 225.947 368.98 226.637 368.688C227.327 368.388 228.102 368.238 228.961 368.238C230.263 368.238 231.295 368.567 232.057 369.225C232.825 369.876 233.209 370.794 233.209 371.979V376.559C233.216 377.561 233.356 378.32 233.629 378.834V379H230.778ZM228.444 377.037C228.86 377.037 229.244 376.946 229.596 376.764C229.948 376.575 230.208 376.324 230.377 376.012V374.195H229.323C227.91 374.195 227.158 374.684 227.067 375.66L227.057 375.826C227.057 376.178 227.181 376.467 227.428 376.695C227.675 376.923 228.014 377.037 228.444 377.037ZM238.357 379H235.525V364H238.357V379ZM248.427 369.586C249.176 368.688 250.117 368.238 251.25 368.238C253.541 368.238 254.703 369.57 254.736 372.232V379H251.914V372.311C251.914 371.705 251.783 371.259 251.523 370.973C251.263 370.68 250.83 370.533 250.224 370.533C249.397 370.533 248.798 370.852 248.427 371.49V379H245.605V364H248.427V369.586ZM261.729 379.195C260.18 379.195 258.917 378.72 257.94 377.77C256.97 376.819 256.485 375.553 256.485 373.971V373.697C256.485 372.636 256.69 371.689 257.1 370.855C257.51 370.016 258.09 369.371 258.839 368.922C259.594 368.466 260.453 368.238 261.417 368.238C262.862 368.238 263.998 368.694 264.825 369.605C265.658 370.517 266.075 371.809 266.075 373.482V374.635H259.346C259.437 375.325 259.711 375.878 260.167 376.295C260.629 376.712 261.212 376.92 261.915 376.92C263.002 376.92 263.852 376.526 264.464 375.738L265.85 377.291C265.427 377.89 264.854 378.359 264.132 378.697C263.409 379.029 262.608 379.195 261.729 379.195ZM261.407 370.523C260.847 370.523 260.391 370.712 260.04 371.09C259.695 371.467 259.473 372.008 259.376 372.711H263.301V372.486C263.288 371.861 263.119 371.38 262.794 371.041C262.468 370.696 262.006 370.523 261.407 370.523ZM273.81 379C273.68 378.746 273.586 378.43 273.527 378.053C272.843 378.814 271.955 379.195 270.861 379.195C269.826 379.195 268.967 378.896 268.283 378.297C267.606 377.698 267.267 376.943 267.267 376.031C267.267 374.911 267.681 374.052 268.508 373.453C269.341 372.854 270.542 372.551 272.111 372.545H273.41V371.939C273.41 371.451 273.283 371.061 273.029 370.768C272.782 370.475 272.388 370.328 271.847 370.328C271.372 370.328 270.998 370.442 270.724 370.67C270.457 370.898 270.324 371.21 270.324 371.607H267.502C267.502 370.995 267.69 370.429 268.068 369.908C268.446 369.387 268.98 368.98 269.67 368.688C270.36 368.388 271.135 368.238 271.994 368.238C273.296 368.238 274.328 368.567 275.09 369.225C275.858 369.876 276.242 370.794 276.242 371.979V376.559C276.248 377.561 276.388 378.32 276.662 378.834V379H273.81ZM271.476 377.037C271.893 377.037 272.277 376.946 272.629 376.764C272.98 376.575 273.241 376.324 273.41 376.012V374.195H272.355C270.942 374.195 270.19 374.684 270.099 375.66L270.09 375.826C270.09 376.178 270.213 376.467 270.461 376.695C270.708 376.923 271.047 377.037 271.476 377.037ZM281.389 379H278.557V364H281.389V379ZM287.103 365.836V368.434H288.91V370.504H287.103V375.777C287.103 376.168 287.178 376.448 287.328 376.617C287.478 376.786 287.764 376.871 288.187 376.871C288.5 376.871 288.777 376.848 289.018 376.803V378.941C288.464 379.111 287.894 379.195 287.309 379.195C285.329 379.195 284.32 378.196 284.281 376.197V370.504H282.738V368.434H284.281V365.836H287.103ZM293.237 369.586C293.986 368.688 294.927 368.238 296.06 368.238C298.351 368.238 299.513 369.57 299.546 372.232V379H296.724V372.311C296.724 371.705 296.593 371.259 296.333 370.973C296.073 370.68 295.64 370.533 295.034 370.533C294.207 370.533 293.608 370.852 293.237 371.49V379H290.415V364H293.237V369.586ZM309.636 379H306.804V368.434H309.636V379ZM306.638 365.699C306.638 365.276 306.778 364.928 307.058 364.654C307.344 364.381 307.732 364.244 308.22 364.244C308.702 364.244 309.086 364.381 309.372 364.654C309.659 364.928 309.802 365.276 309.802 365.699C309.802 366.129 309.655 366.48 309.362 366.754C309.076 367.027 308.695 367.164 308.22 367.164C307.745 367.164 307.361 367.027 307.068 366.754C306.781 366.48 306.638 366.129 306.638 365.699ZM317.694 376.08C317.694 375.735 317.521 375.465 317.176 375.27C316.837 375.068 316.291 374.889 315.535 374.732C313.022 374.205 311.766 373.137 311.766 371.529C311.766 370.592 312.153 369.811 312.928 369.186C313.709 368.554 314.728 368.238 315.985 368.238C317.326 368.238 318.397 368.554 319.198 369.186C320.005 369.817 320.408 370.637 320.408 371.646H317.586C317.586 371.243 317.456 370.911 317.196 370.65C316.935 370.383 316.528 370.25 315.975 370.25C315.5 370.25 315.132 370.357 314.871 370.572C314.611 370.787 314.481 371.061 314.481 371.393C314.481 371.705 314.627 371.959 314.92 372.154C315.22 372.343 315.721 372.509 316.424 372.652C317.127 372.789 317.72 372.945 318.201 373.121C319.692 373.668 320.438 374.615 320.438 375.963C320.438 376.926 320.024 377.708 319.198 378.307C318.371 378.899 317.303 379.195 315.994 379.195C315.109 379.195 314.321 379.039 313.631 378.727C312.948 378.408 312.41 377.975 312.02 377.428C311.629 376.874 311.434 376.279 311.434 375.641H314.11C314.136 376.142 314.321 376.526 314.666 376.793C315.011 377.06 315.474 377.193 316.053 377.193C316.593 377.193 317 377.092 317.274 376.891C317.554 376.682 317.694 376.412 317.694 376.08ZM327.988 376.08C327.988 375.735 327.815 375.465 327.47 375.27C327.132 375.068 326.585 374.889 325.829 374.732C323.316 374.205 322.06 373.137 322.06 371.529C322.06 370.592 322.447 369.811 323.222 369.186C324.003 368.554 325.022 368.238 326.279 368.238C327.62 368.238 328.691 368.554 329.492 369.186C330.299 369.817 330.702 370.637 330.702 371.646H327.88C327.88 371.243 327.75 370.911 327.49 370.65C327.229 370.383 326.822 370.25 326.269 370.25C325.794 370.25 325.426 370.357 325.165 370.572C324.905 370.787 324.775 371.061 324.775 371.393C324.775 371.705 324.921 371.959 325.214 372.154C325.514 372.343 326.015 372.509 326.718 372.652C327.421 372.789 328.014 372.945 328.495 373.121C329.986 373.668 330.732 374.615 330.732 375.963C330.732 376.926 330.318 377.708 329.492 378.307C328.665 378.899 327.597 379.195 326.288 379.195C325.403 379.195 324.615 379.039 323.925 378.727C323.242 378.408 322.704 377.975 322.314 377.428C321.923 376.874 321.728 376.279 321.728 375.641H324.404C324.43 376.142 324.615 376.526 324.96 376.793C325.305 377.06 325.768 377.193 326.347 377.193C326.887 377.193 327.294 377.092 327.568 376.891C327.848 376.682 327.988 376.412 327.988 376.08ZM338.887 377.926C338.191 378.772 337.227 379.195 335.997 379.195C334.864 379.195 333.998 378.87 333.399 378.219C332.806 377.568 332.504 376.614 332.491 375.357V368.434H335.313V375.26C335.313 376.36 335.814 376.91 336.817 376.91C337.774 376.91 338.431 376.578 338.789 375.914V368.434H341.622V379H338.965L338.887 377.926ZM348.615 379.195C347.065 379.195 345.802 378.72 344.826 377.77C343.856 376.819 343.371 375.553 343.371 373.971V373.697C343.371 372.636 343.576 371.689 343.986 370.855C344.396 370.016 344.975 369.371 345.724 368.922C346.479 368.466 347.339 368.238 348.302 368.238C349.748 368.238 350.884 368.694 351.71 369.605C352.544 370.517 352.96 371.809 352.96 373.482V374.635H346.232C346.323 375.325 346.597 375.878 347.052 376.295C347.515 376.712 348.097 376.92 348.8 376.92C349.888 376.92 350.737 376.526 351.349 375.738L352.736 377.291C352.313 377.89 351.74 378.359 351.017 378.697C350.294 379.029 349.494 379.195 348.615 379.195ZM348.293 370.523C347.733 370.523 347.277 370.712 346.925 371.09C346.58 371.467 346.359 372.008 346.261 372.711H350.187V372.486C350.174 371.861 350.005 371.38 349.679 371.041C349.354 370.696 348.891 370.523 348.293 370.523ZM360.296 376.08C360.296 375.735 360.123 375.465 359.778 375.27C359.439 375.068 358.893 374.889 358.137 374.732C355.624 374.205 354.368 373.137 354.368 371.529C354.368 370.592 354.755 369.811 355.53 369.186C356.311 368.554 357.33 368.238 358.587 368.238C359.928 368.238 360.999 368.554 361.799 369.186C362.607 369.817 363.01 370.637 363.01 371.646H360.188C360.188 371.243 360.058 370.911 359.797 370.65C359.537 370.383 359.13 370.25 358.577 370.25C358.102 370.25 357.734 370.357 357.473 370.572C357.213 370.787 357.083 371.061 357.083 371.393C357.083 371.705 357.229 371.959 357.522 372.154C357.822 372.343 358.323 372.509 359.026 372.652C359.729 372.789 360.322 372.945 360.803 373.121C362.294 373.668 363.04 374.615 363.04 375.963C363.04 376.926 362.626 377.708 361.799 378.307C360.973 378.899 359.905 379.195 358.596 379.195C357.711 379.195 356.923 379.039 356.233 378.727C355.549 378.408 355.012 377.975 354.622 377.428C354.231 376.874 354.036 376.279 354.036 375.641H356.712C356.738 376.142 356.923 376.526 357.268 376.793C357.613 377.06 358.075 377.193 358.655 377.193C359.195 377.193 359.602 377.092 359.876 376.891C360.156 376.682 360.296 376.412 360.296 376.08ZM74.0625 407H71.2305V396.434H74.0625V407ZM71.0645 393.699C71.0645 393.276 71.2044 392.928 71.4844 392.654C71.7708 392.381 72.1582 392.244 72.6465 392.244C73.1283 392.244 73.5124 392.381 73.7988 392.654C74.0853 392.928 74.2285 393.276 74.2285 393.699C74.2285 394.129 74.082 394.48 73.7891 394.754C73.5026 395.027 73.1217 395.164 72.6465 395.164C72.1712 395.164 71.7871 395.027 71.4941 394.754C71.2077 394.48 71.0645 394.129 71.0645 393.699ZM78.9952 396.434L79.0831 397.654C79.8383 396.71 80.8507 396.238 82.1202 396.238C83.24 396.238 84.0733 396.567 84.6202 397.225C85.1671 397.882 85.447 398.865 85.46 400.174V407H82.6378V400.242C82.6378 399.643 82.5076 399.21 82.2472 398.943C81.9867 398.67 81.5538 398.533 80.9483 398.533C80.1541 398.533 79.5584 398.872 79.1612 399.549V407H76.339V396.434H78.9952ZM95.97 393.836V396.434H97.7766V398.504H95.97V403.777C95.97 404.168 96.0449 404.448 96.1946 404.617C96.3443 404.786 96.6308 404.871 97.054 404.871C97.3665 404.871 97.6432 404.848 97.884 404.803V406.941C97.3307 407.111 96.761 407.195 96.1751 407.195C94.1959 407.195 93.1868 406.196 93.1477 404.197V398.504H91.6047V396.434H93.1477V393.836H95.97ZM102.104 397.586C102.853 396.688 103.793 396.238 104.926 396.238C107.218 396.238 108.38 397.57 108.412 400.232V407H105.59V400.311C105.59 399.705 105.46 399.259 105.2 398.973C104.939 398.68 104.506 398.533 103.901 398.533C103.074 398.533 102.475 398.852 102.104 399.49V407H99.2816V392H102.104V397.586ZM115.406 407.195C113.856 407.195 112.593 406.72 111.617 405.77C110.647 404.819 110.162 403.553 110.162 401.971V401.697C110.162 400.636 110.367 399.689 110.777 398.855C111.187 398.016 111.766 397.371 112.515 396.922C113.27 396.466 114.13 396.238 115.093 396.238C116.539 396.238 117.675 396.694 118.501 397.605C119.335 398.517 119.751 399.809 119.751 401.482V402.635H113.023C113.114 403.325 113.387 403.878 113.843 404.295C114.305 404.712 114.888 404.92 115.591 404.92C116.678 404.92 117.528 404.526 118.14 403.738L119.527 405.291C119.104 405.89 118.531 406.359 117.808 406.697C117.085 407.029 116.285 407.195 115.406 407.195ZM115.083 398.523C114.524 398.523 114.068 398.712 113.716 399.09C113.371 399.467 113.15 400.008 113.052 400.711H116.978V400.486C116.965 399.861 116.796 399.38 116.47 399.041C116.145 398.696 115.682 398.523 115.083 398.523ZM130.74 404.92C131.261 404.92 131.684 404.777 132.009 404.49C132.335 404.204 132.504 403.823 132.517 403.348H135.164C135.157 404.064 134.962 404.721 134.578 405.32C134.194 405.913 133.666 406.375 132.996 406.707C132.332 407.033 131.596 407.195 130.789 407.195C129.278 407.195 128.087 406.717 127.214 405.76C126.342 404.796 125.906 403.468 125.906 401.775V401.59C125.906 399.962 126.339 398.663 127.205 397.693C128.071 396.723 129.259 396.238 130.769 396.238C132.091 396.238 133.149 396.616 133.943 397.371C134.744 398.12 135.151 399.119 135.164 400.369H132.517C132.504 399.822 132.335 399.38 132.009 399.041C131.684 398.696 131.254 398.523 130.72 398.523C130.063 398.523 129.565 398.764 129.226 399.246C128.894 399.721 128.728 400.496 128.728 401.57V401.863C128.728 402.951 128.894 403.732 129.226 404.207C129.558 404.682 130.063 404.92 130.74 404.92ZM136.337 401.619C136.337 400.571 136.538 399.637 136.942 398.816C137.346 397.996 137.925 397.361 138.68 396.912C139.442 396.463 140.324 396.238 141.327 396.238C142.753 396.238 143.915 396.674 144.813 397.547C145.718 398.419 146.223 399.604 146.327 401.102L146.346 401.824C146.346 403.445 145.894 404.747 144.989 405.73C144.084 406.707 142.87 407.195 141.346 407.195C139.823 407.195 138.605 406.707 137.694 405.73C136.789 404.754 136.337 403.426 136.337 401.746V401.619ZM139.159 401.824C139.159 402.827 139.348 403.595 139.725 404.129C140.103 404.656 140.643 404.92 141.346 404.92C142.03 404.92 142.564 404.66 142.948 404.139C143.332 403.611 143.524 402.771 143.524 401.619C143.524 400.636 143.332 399.874 142.948 399.334C142.564 398.794 142.023 398.523 141.327 398.523C140.637 398.523 140.103 398.794 139.725 399.334C139.348 399.868 139.159 400.698 139.159 401.824ZM150.683 396.434L150.771 397.654C151.526 396.71 152.539 396.238 153.808 396.238C154.928 396.238 155.762 396.567 156.308 397.225C156.855 397.882 157.135 398.865 157.148 400.174V407H154.326V400.242C154.326 399.643 154.196 399.21 153.935 398.943C153.675 398.67 153.242 398.533 152.637 398.533C151.842 398.533 151.247 398.872 150.849 399.549V407H148.027V396.434H150.683ZM162.677 393.836V396.434H164.483V398.504H162.677V403.777C162.677 404.168 162.751 404.448 162.901 404.617C163.051 404.786 163.337 404.871 163.761 404.871C164.073 404.871 164.35 404.848 164.591 404.803V406.941C164.037 407.111 163.468 407.195 162.882 407.195C160.903 407.195 159.893 406.196 159.854 404.197V398.504H158.311V396.434H159.854V393.836H162.677ZM170.92 407.195C169.37 407.195 168.107 406.72 167.131 405.77C166.161 404.819 165.676 403.553 165.676 401.971V401.697C165.676 400.636 165.881 399.689 166.291 398.855C166.701 398.016 167.281 397.371 168.029 396.922C168.784 396.466 169.644 396.238 170.607 396.238C172.053 396.238 173.189 396.694 174.016 397.605C174.849 398.517 175.266 399.809 175.266 401.482V402.635H168.537C168.628 403.325 168.902 403.878 169.357 404.295C169.82 404.712 170.402 404.92 171.105 404.92C172.193 404.92 173.042 404.526 173.654 403.738L175.041 405.291C174.618 405.89 174.045 406.359 173.322 406.697C172.6 407.029 171.799 407.195 170.92 407.195ZM170.598 398.523C170.038 398.523 169.582 398.712 169.23 399.09C168.885 399.467 168.664 400.008 168.566 400.711H172.492V400.486C172.479 399.861 172.31 399.38 171.984 399.041C171.659 398.696 171.197 398.523 170.598 398.523ZM180.901 399.588L182.679 396.434H185.696L182.689 401.609L185.823 407H182.796L180.911 403.68L179.036 407H175.999L179.134 401.609L176.136 396.434H179.163L180.901 399.588ZM190.434 393.836V396.434H192.24V398.504H190.434V403.777C190.434 404.168 190.509 404.448 190.658 404.617C190.808 404.786 191.095 404.871 191.518 404.871C191.83 404.871 192.107 404.848 192.348 404.803V406.941C191.794 407.111 191.225 407.195 190.639 407.195C188.66 407.195 187.651 406.196 187.611 404.197V398.504H186.068V396.434H187.611V393.836H190.434ZM198.356 401.619C198.356 400.571 198.558 399.637 198.961 398.816C199.365 397.996 199.944 397.361 200.7 396.912C201.461 396.463 202.343 396.238 203.346 396.238C204.772 396.238 205.934 396.674 206.832 397.547C207.737 398.419 208.242 399.604 208.346 401.102L208.366 401.824C208.366 403.445 207.913 404.747 207.008 405.73C206.103 406.707 204.889 407.195 203.366 407.195C201.842 407.195 200.625 406.707 199.713 405.73C198.808 404.754 198.356 403.426 198.356 401.746V401.619ZM201.178 401.824C201.178 402.827 201.367 403.595 201.744 404.129C202.122 404.656 202.662 404.92 203.366 404.92C204.049 404.92 204.583 404.66 204.967 404.139C205.351 403.611 205.543 402.771 205.543 401.619C205.543 400.636 205.351 399.874 204.967 399.334C204.583 398.794 204.043 398.523 203.346 398.523C202.656 398.523 202.122 398.794 201.744 399.334C201.367 399.868 201.178 400.698 201.178 401.824ZM210.876 407V398.504H209.304V396.434H210.876V395.535C210.876 394.35 211.215 393.432 211.892 392.781C212.576 392.124 213.529 391.795 214.753 391.795C215.144 391.795 215.622 391.86 216.189 391.99L216.16 394.178C215.925 394.119 215.639 394.09 215.3 394.09C214.239 394.09 213.708 394.588 213.708 395.584V396.434H215.808V398.504H213.708V407H210.876ZM228.378 407C228.248 406.746 228.154 406.43 228.095 406.053C227.412 406.814 226.523 407.195 225.429 407.195C224.394 407.195 223.535 406.896 222.851 406.297C222.174 405.698 221.836 404.943 221.836 404.031C221.836 402.911 222.249 402.052 223.076 401.453C223.909 400.854 225.11 400.551 226.679 400.545H227.978V399.939C227.978 399.451 227.851 399.061 227.597 398.768C227.35 398.475 226.956 398.328 226.416 398.328C225.94 398.328 225.566 398.442 225.293 398.67C225.026 398.898 224.892 399.21 224.892 399.607H222.07C222.07 398.995 222.259 398.429 222.636 397.908C223.014 397.387 223.548 396.98 224.238 396.688C224.928 396.388 225.703 396.238 226.562 396.238C227.864 396.238 228.896 396.567 229.658 397.225C230.426 397.876 230.81 398.794 230.81 399.979V404.559C230.817 405.561 230.957 406.32 231.23 406.834V407H228.378ZM226.044 405.037C226.461 405.037 226.845 404.946 227.197 404.764C227.548 404.575 227.809 404.324 227.978 404.012V402.195H226.923C225.511 402.195 224.759 402.684 224.668 403.66L224.658 403.826C224.658 404.178 224.781 404.467 225.029 404.695C225.276 404.923 225.615 405.037 226.044 405.037ZM238.917 399.08C238.533 399.028 238.194 399.002 237.901 399.002C236.833 399.002 236.133 399.363 235.801 400.086V407H232.979V396.434H235.645L235.723 397.693C236.29 396.723 237.074 396.238 238.077 396.238C238.389 396.238 238.682 396.281 238.956 396.365L238.917 399.08ZM244.484 404.92C245.005 404.92 245.428 404.777 245.754 404.49C246.079 404.204 246.248 403.823 246.261 403.348H248.908C248.901 404.064 248.706 404.721 248.322 405.32C247.938 405.913 247.411 406.375 246.74 406.707C246.076 407.033 245.34 407.195 244.533 407.195C243.023 407.195 241.831 406.717 240.959 405.76C240.086 404.796 239.65 403.468 239.65 401.775V401.59C239.65 399.962 240.083 398.663 240.949 397.693C241.815 396.723 243.003 396.238 244.513 396.238C245.835 396.238 246.893 396.616 247.687 397.371C248.488 398.12 248.895 399.119 248.908 400.369H246.261C246.248 399.822 246.079 399.38 245.754 399.041C245.428 398.696 244.998 398.523 244.465 398.523C243.807 398.523 243.309 398.764 242.97 399.246C242.638 399.721 242.472 400.496 242.472 401.57V401.863C242.472 402.951 242.638 403.732 242.97 404.207C243.302 404.682 243.807 404.92 244.484 404.92ZM253.274 397.586C254.023 396.688 254.964 396.238 256.097 396.238C258.388 396.238 259.55 397.57 259.583 400.232V407H256.761V400.311C256.761 399.705 256.63 399.259 256.37 398.973C256.11 398.68 255.677 398.533 255.071 398.533C254.244 398.533 253.645 398.852 253.274 399.49V407H250.452V392H253.274V397.586ZM264.691 407H261.859V396.434H264.691V407ZM261.693 393.699C261.693 393.276 261.833 392.928 262.113 392.654C262.4 392.381 262.787 392.244 263.275 392.244C263.757 392.244 264.141 392.381 264.428 392.654C264.714 392.928 264.857 393.276 264.857 393.699C264.857 394.129 264.711 394.48 264.418 394.754C264.131 395.027 263.751 395.164 263.275 395.164C262.8 395.164 262.416 395.027 262.123 394.754C261.837 394.48 261.693 394.129 261.693 393.699ZM270.405 393.836V396.434H272.212V398.504H270.405V403.777C270.405 404.168 270.48 404.448 270.63 404.617C270.78 404.786 271.066 404.871 271.489 404.871C271.802 404.871 272.078 404.848 272.319 404.803V406.941C271.766 407.111 271.196 407.195 270.61 407.195C268.631 407.195 267.622 406.196 267.583 404.197V398.504H266.04V396.434H267.583V393.836H270.405ZM278.649 407.195C277.099 407.195 275.836 406.72 274.859 405.77C273.889 404.819 273.404 403.553 273.404 401.971V401.697C273.404 400.636 273.609 399.689 274.02 398.855C274.43 398.016 275.009 397.371 275.758 396.922C276.513 396.466 277.372 396.238 278.336 396.238C279.781 396.238 280.917 396.694 281.744 397.605C282.578 398.517 282.994 399.809 282.994 401.482V402.635H276.266C276.357 403.325 276.63 403.878 277.086 404.295C277.548 404.712 278.131 404.92 278.834 404.92C279.921 404.92 280.771 404.526 281.383 403.738L282.77 405.291C282.346 405.89 281.774 406.359 281.051 406.697C280.328 407.029 279.527 407.195 278.649 407.195ZM278.326 398.523C277.766 398.523 277.311 398.712 276.959 399.09C276.614 399.467 276.393 400.008 276.295 400.711H280.221V400.486C280.208 399.861 280.039 399.38 279.713 399.041C279.387 398.696 278.925 398.523 278.326 398.523ZM289.001 404.92C289.522 404.92 289.945 404.777 290.271 404.49C290.596 404.204 290.765 403.823 290.778 403.348H293.425C293.418 404.064 293.223 404.721 292.839 405.32C292.455 405.913 291.928 406.375 291.257 406.707C290.593 407.033 289.857 407.195 289.05 407.195C287.54 407.195 286.348 406.717 285.476 405.76C284.603 404.796 284.167 403.468 284.167 401.775V401.59C284.167 399.962 284.6 398.663 285.466 397.693C286.332 396.723 287.52 396.238 289.03 396.238C290.352 396.238 291.41 396.616 292.204 397.371C293.005 398.12 293.412 399.119 293.425 400.369H290.778C290.765 399.822 290.596 399.38 290.271 399.041C289.945 398.696 289.515 398.523 288.982 398.523C288.324 398.523 287.826 398.764 287.487 399.246C287.155 399.721 286.989 400.496 286.989 401.57V401.863C286.989 402.951 287.155 403.732 287.487 404.207C287.82 404.682 288.324 404.92 289.001 404.92ZM298.416 393.836V396.434H300.223V398.504H298.416V403.777C298.416 404.168 298.491 404.448 298.641 404.617C298.791 404.786 299.077 404.871 299.5 404.871C299.813 404.871 300.089 404.848 300.33 404.803V406.941C299.777 407.111 299.207 407.195 298.621 407.195C296.642 407.195 295.633 406.196 295.594 404.197V398.504H294.051V396.434H295.594V393.836H298.416ZM308.124 405.926C307.428 406.772 306.464 407.195 305.234 407.195C304.101 407.195 303.235 406.87 302.636 406.219C302.044 405.568 301.741 404.614 301.728 403.357V396.434H304.55V403.26C304.55 404.36 305.051 404.91 306.054 404.91C307.011 404.91 307.669 404.578 308.027 403.914V396.434H310.859V407H308.202L308.124 405.926ZM318.926 399.08C318.542 399.028 318.204 399.002 317.911 399.002C316.843 399.002 316.143 399.363 315.811 400.086V407H312.989V396.434H315.655L315.733 397.693C316.299 396.723 317.084 396.238 318.086 396.238C318.399 396.238 318.692 396.281 318.965 396.365L318.926 399.08ZM324.962 407.195C323.413 407.195 322.15 406.72 321.173 405.77C320.203 404.819 319.718 403.553 319.718 401.971V401.697C319.718 400.636 319.923 399.689 320.334 398.855C320.744 398.016 321.323 397.371 322.072 396.922C322.827 396.466 323.686 396.238 324.65 396.238C326.095 396.238 327.231 396.694 328.058 397.605C328.891 398.517 329.308 399.809 329.308 401.482V402.635H322.58C322.671 403.325 322.944 403.878 323.4 404.295C323.862 404.712 324.445 404.92 325.148 404.92C326.235 404.92 327.085 404.526 327.697 403.738L329.084 405.291C328.66 405.89 328.087 406.359 327.365 406.697C326.642 407.029 325.841 407.195 324.962 407.195ZM324.64 398.523C324.08 398.523 323.625 398.712 323.273 399.09C322.928 399.467 322.707 400.008 322.609 400.711H326.535V400.486C326.522 399.861 326.352 399.38 326.027 399.041C325.701 398.696 325.239 398.523 324.64 398.523Z" fill="white"/>
<path opacity="0.8" d="M74.9448 757.758H76.1699V764.302C76.1699 765.187 75.9033 765.879 75.3701 766.378C74.8411 766.877 74.1344 767.127 73.25 767.127C72.3317 767.127 71.6165 766.892 71.1045 766.422C70.5924 765.953 70.3364 765.295 70.3364 764.448H71.5552C71.5552 764.977 71.6991 765.39 71.9868 765.686C72.2788 765.982 72.6999 766.13 73.25 766.13C73.7536 766.13 74.1598 765.972 74.4688 765.654C74.7819 765.337 74.9406 764.893 74.9448 764.321V757.758ZM82.3018 766.321C81.8447 766.858 81.174 767.127 80.2896 767.127C79.5575 767.127 78.9989 766.915 78.6138 766.492C78.2329 766.065 78.0404 765.434 78.0361 764.601V760.132H79.2104V764.569C79.2104 765.61 79.6336 766.13 80.48 766.13C81.3771 766.13 81.9738 765.796 82.27 765.127V760.132H83.4443V767H82.3271L82.3018 766.321ZM86.5103 767H85.3359V757.25H86.5103V767ZM89.6714 767H88.4971V760.132H89.6714V767ZM88.4019 758.31C88.4019 758.12 88.459 757.959 88.5732 757.828C88.6917 757.696 88.8652 757.631 89.0938 757.631C89.3223 757.631 89.4958 757.696 89.6143 757.828C89.7327 757.959 89.792 758.12 89.792 758.31C89.792 758.5 89.7327 758.659 89.6143 758.786C89.4958 758.913 89.3223 758.977 89.0938 758.977C88.8652 758.977 88.6917 758.913 88.5732 758.786C88.459 758.659 88.4019 758.5 88.4019 758.31ZM95.7969 767C95.7292 766.865 95.6742 766.623 95.6318 766.276C95.0859 766.843 94.4342 767.127 93.6768 767.127C92.9997 767.127 92.4432 766.937 92.0073 766.556C91.5757 766.171 91.3599 765.684 91.3599 765.096C91.3599 764.381 91.6307 763.826 92.1724 763.433C92.7183 763.035 93.4842 762.836 94.4702 762.836H95.6128V762.296C95.6128 761.886 95.4901 761.56 95.2446 761.319C94.9992 761.073 94.6374 760.951 94.1592 760.951C93.7402 760.951 93.389 761.056 93.1055 761.268C92.8219 761.48 92.6802 761.736 92.6802 762.036H91.4995C91.4995 761.693 91.6201 761.363 91.8613 761.046C92.1068 760.724 92.4368 760.47 92.8516 760.284C93.2705 760.098 93.7297 760.005 94.229 760.005C95.0203 760.005 95.6403 760.204 96.0889 760.602C96.5374 760.995 96.7702 761.539 96.7871 762.233V765.394C96.7871 766.025 96.8675 766.526 97.0283 766.898V767H95.7969ZM93.8481 766.105C94.2163 766.105 94.5654 766.01 94.8955 765.819C95.2256 765.629 95.4647 765.381 95.6128 765.077V763.667H94.6924C93.2536 763.667 92.5342 764.089 92.5342 764.931C92.5342 765.299 92.6569 765.587 92.9023 765.794C93.1478 766.001 93.4631 766.105 93.8481 766.105ZM99.7388 760.132L99.7769 760.995C100.302 760.335 100.987 760.005 101.833 760.005C103.285 760.005 104.017 760.824 104.03 762.461V767H102.855V762.455C102.851 761.96 102.737 761.594 102.513 761.357C102.293 761.12 101.948 761.001 101.478 761.001C101.097 761.001 100.763 761.103 100.475 761.306C100.187 761.509 99.9631 761.776 99.8022 762.106V767H98.6279V760.132H99.7388ZM112.599 763.261H110.428V767H109.203V757.758H112.263C113.304 757.758 114.104 757.995 114.662 758.469C115.225 758.943 115.506 759.632 115.506 760.538C115.506 761.114 115.35 761.615 115.037 762.042C114.728 762.47 114.296 762.789 113.742 763.001L115.913 766.924V767H114.605L112.599 763.261ZM110.428 762.265H112.301C112.906 762.265 113.386 762.108 113.742 761.795C114.101 761.482 114.281 761.063 114.281 760.538C114.281 759.967 114.11 759.529 113.767 759.224C113.429 758.919 112.938 758.765 112.294 758.761H110.428V762.265ZM118.312 767H117.138V760.132H118.312V767ZM117.042 758.31C117.042 758.12 117.1 757.959 117.214 757.828C117.332 757.696 117.506 757.631 117.734 757.631C117.963 757.631 118.136 757.696 118.255 757.828C118.373 757.959 118.433 758.12 118.433 758.31C118.433 758.5 118.373 758.659 118.255 758.786C118.136 758.913 117.963 758.977 117.734 758.977C117.506 758.977 117.332 758.913 117.214 758.786C117.1 758.659 117.042 758.5 117.042 758.31ZM121.473 767H120.299V760.132H121.473V767ZM120.204 758.31C120.204 758.12 120.261 757.959 120.375 757.828C120.493 757.696 120.667 757.631 120.896 757.631C121.124 757.631 121.298 757.696 121.416 757.828C121.535 757.959 121.594 758.12 121.594 758.31C121.594 758.5 121.535 758.659 121.416 758.786C121.298 758.913 121.124 758.977 120.896 758.977C120.667 758.977 120.493 758.913 120.375 758.786C120.261 758.659 120.204 758.5 120.204 758.31ZM127.357 765.178C127.357 764.861 127.237 764.615 126.996 764.442C126.759 764.264 126.342 764.112 125.745 763.985C125.153 763.858 124.681 763.706 124.33 763.528C123.983 763.35 123.724 763.139 123.555 762.893C123.39 762.648 123.308 762.356 123.308 762.017C123.308 761.454 123.545 760.978 124.019 760.589C124.497 760.2 125.106 760.005 125.847 760.005C126.625 760.005 127.256 760.206 127.738 760.608C128.225 761.01 128.468 761.524 128.468 762.15H127.288C127.288 761.829 127.15 761.552 126.875 761.319C126.604 761.086 126.261 760.97 125.847 760.97C125.419 760.97 125.085 761.063 124.844 761.249C124.603 761.435 124.482 761.679 124.482 761.979C124.482 762.263 124.594 762.476 124.818 762.62C125.043 762.764 125.447 762.902 126.031 763.033C126.619 763.164 127.095 763.32 127.459 763.502C127.823 763.684 128.092 763.904 128.265 764.163C128.443 764.417 128.532 764.728 128.532 765.096C128.532 765.709 128.286 766.202 127.795 766.575C127.305 766.943 126.668 767.127 125.885 767.127C125.335 767.127 124.848 767.03 124.425 766.835C124.002 766.64 123.669 766.369 123.428 766.022C123.191 765.671 123.073 765.292 123.073 764.886H124.247C124.268 765.28 124.425 765.593 124.717 765.826C125.013 766.054 125.402 766.168 125.885 766.168C126.329 766.168 126.685 766.08 126.951 765.902C127.222 765.72 127.357 765.479 127.357 765.178ZM132.912 767.127C131.981 767.127 131.223 766.822 130.639 766.213C130.055 765.599 129.763 764.78 129.763 763.756V763.541C129.763 762.859 129.892 762.252 130.15 761.719C130.413 761.181 130.777 760.762 131.242 760.462C131.712 760.157 132.22 760.005 132.766 760.005C133.659 760.005 134.353 760.299 134.848 760.887C135.343 761.475 135.59 762.318 135.59 763.414V763.902H130.938C130.954 764.579 131.151 765.127 131.528 765.546C131.909 765.961 132.391 766.168 132.975 766.168C133.39 766.168 133.741 766.084 134.029 765.915C134.317 765.745 134.568 765.521 134.784 765.242L135.501 765.8C134.926 766.685 134.063 767.127 132.912 767.127ZM132.766 760.97C132.292 760.97 131.894 761.143 131.572 761.49C131.251 761.833 131.052 762.315 130.976 762.938H134.416V762.849C134.382 762.252 134.221 761.791 133.934 761.465C133.646 761.135 133.257 760.97 132.766 760.97ZM72.2915 782.382V786H71.0728V776.758H74.4814C75.4928 776.758 76.2842 777.016 76.8555 777.532C77.431 778.049 77.7188 778.732 77.7188 779.583C77.7188 780.48 77.4373 781.172 76.8745 781.658C76.3159 782.141 75.514 782.382 74.4688 782.382H72.2915ZM72.2915 781.385H74.4814C75.1331 781.385 75.6325 781.233 75.9795 780.928C76.3265 780.619 76.5 780.175 76.5 779.595C76.5 779.045 76.3265 778.605 75.9795 778.275C75.6325 777.945 75.1564 777.773 74.5513 777.761H72.2915V781.385ZM82.4097 780.186C82.2319 780.156 82.0394 780.141 81.832 780.141C81.0618 780.141 80.5392 780.469 80.2642 781.125V786H79.0898V779.132H80.2324L80.2515 779.925C80.6366 779.312 81.1825 779.005 81.8892 779.005C82.1177 779.005 82.2912 779.035 82.4097 779.094V780.186ZM86.2183 786.127C85.2873 786.127 84.5298 785.822 83.9458 785.213C83.3618 784.599 83.0698 783.78 83.0698 782.756V782.541C83.0698 781.859 83.1989 781.252 83.457 780.719C83.7194 780.181 84.0833 779.762 84.5488 779.462C85.0186 779.157 85.5264 779.005 86.0723 779.005C86.9652 779.005 87.6592 779.299 88.1543 779.887C88.6494 780.475 88.897 781.318 88.897 782.414V782.902H84.2441C84.2611 783.579 84.4578 784.127 84.8345 784.546C85.2153 784.961 85.6978 785.168 86.2817 785.168C86.6965 785.168 87.0477 785.084 87.3354 784.915C87.6232 784.745 87.875 784.521 88.0908 784.242L88.8081 784.8C88.2326 785.685 87.3693 786.127 86.2183 786.127ZM86.0723 779.97C85.5983 779.97 85.2005 780.143 84.8789 780.49C84.5573 780.833 84.3584 781.315 84.2822 781.938H87.7227V781.849C87.6888 781.252 87.528 780.791 87.2402 780.465C86.9525 780.135 86.5632 779.97 86.0723 779.97ZM92.7056 782.553H89.6079V781.595H92.7056V782.553ZM93.5688 782.509C93.5688 781.455 93.8185 780.609 94.3179 779.97C94.8172 779.326 95.471 779.005 96.2793 779.005C97.0833 779.005 97.7202 779.28 98.1899 779.83V776.25H99.3643V786H98.2852L98.228 785.264C97.7583 785.839 97.1045 786.127 96.2666 786.127C95.471 786.127 94.8215 785.801 94.3179 785.149C93.8185 784.498 93.5688 783.647 93.5688 782.598V782.509ZM94.7432 782.642C94.7432 783.421 94.904 784.03 95.2256 784.47C95.5472 784.91 95.9915 785.13 96.5586 785.13C97.3034 785.13 97.8472 784.796 98.1899 784.127V780.973C97.8387 780.325 97.2992 780.001 96.5713 780.001C95.9958 780.001 95.5472 780.224 95.2256 780.668C94.904 781.112 94.7432 781.77 94.7432 782.642ZM102.468 786H101.294V779.132H102.468V786ZM101.199 777.31C101.199 777.12 101.256 776.959 101.37 776.828C101.489 776.696 101.662 776.631 101.891 776.631C102.119 776.631 102.293 776.696 102.411 776.828C102.53 776.959 102.589 777.12 102.589 777.31C102.589 777.5 102.53 777.659 102.411 777.786C102.293 777.913 102.119 777.977 101.891 777.977C101.662 777.977 101.489 777.913 101.37 777.786C101.256 777.659 101.199 777.5 101.199 777.31ZM110.155 782.642C110.155 783.687 109.916 784.529 109.438 785.168C108.96 785.807 108.312 786.127 107.496 786.127C106.662 786.127 106.006 785.862 105.528 785.333V788.641H104.354V779.132H105.426L105.483 779.894C105.962 779.301 106.626 779.005 107.477 779.005C108.302 779.005 108.953 779.316 109.432 779.938C109.914 780.56 110.155 781.425 110.155 782.534V782.642ZM108.981 782.509C108.981 781.734 108.816 781.123 108.486 780.674C108.156 780.226 107.703 780.001 107.127 780.001C106.417 780.001 105.883 780.317 105.528 780.947V784.229C105.879 784.855 106.417 785.168 107.14 785.168C107.703 785.168 108.149 784.946 108.479 784.502C108.814 784.053 108.981 783.389 108.981 782.509ZM112.929 786H111.755V776.25H112.929V786ZM114.503 782.502C114.503 781.83 114.635 781.224 114.897 780.687C115.164 780.15 115.532 779.735 116.001 779.443C116.475 779.151 117.015 779.005 117.62 779.005C118.555 779.005 119.311 779.329 119.886 779.976C120.466 780.624 120.756 781.485 120.756 782.56V782.642C120.756 783.311 120.627 783.912 120.369 784.445C120.115 784.974 119.749 785.386 119.271 785.683C118.797 785.979 118.251 786.127 117.633 786.127C116.702 786.127 115.946 785.803 115.367 785.156C114.791 784.508 114.503 783.651 114.503 782.585V782.502ZM115.684 782.642C115.684 783.404 115.86 784.015 116.211 784.477C116.566 784.938 117.04 785.168 117.633 785.168C118.229 785.168 118.703 784.936 119.055 784.47C119.406 784 119.582 783.345 119.582 782.502C119.582 781.749 119.402 781.14 119.042 780.674C118.687 780.205 118.213 779.97 117.62 779.97C117.04 779.97 116.573 780.2 116.217 780.662C115.862 781.123 115.684 781.783 115.684 782.642ZM123.333 779.132L123.365 779.894C123.868 779.301 124.548 779.005 125.402 779.005C126.363 779.005 127.017 779.373 127.364 780.109C127.592 779.779 127.889 779.513 128.252 779.31C128.621 779.106 129.054 779.005 129.554 779.005C131.06 779.005 131.826 779.803 131.852 781.398V786H130.677V781.468C130.677 780.977 130.565 780.611 130.341 780.37C130.117 780.124 129.74 780.001 129.211 780.001C128.775 780.001 128.413 780.133 128.125 780.395C127.838 780.653 127.671 781.002 127.624 781.442V786H126.443V781.5C126.443 780.501 125.955 780.001 124.977 780.001C124.207 780.001 123.68 780.329 123.396 780.985V786H122.222V779.132H123.333ZM142.789 786H136.733V785.156L139.932 781.601C140.406 781.064 140.732 780.628 140.91 780.293C141.092 779.955 141.183 779.606 141.183 779.246C141.183 778.764 141.037 778.368 140.745 778.059C140.453 777.75 140.063 777.596 139.577 777.596C138.993 777.596 138.538 777.763 138.212 778.097C137.89 778.427 137.729 778.889 137.729 779.481H136.555C136.555 778.63 136.828 777.943 137.374 777.418C137.924 776.893 138.658 776.631 139.577 776.631C140.436 776.631 141.115 776.857 141.614 777.31C142.114 777.759 142.363 778.357 142.363 779.106C142.363 780.016 141.784 781.1 140.624 782.356L138.148 785.042H142.789V786ZM149.828 782.058C149.828 783.433 149.593 784.455 149.124 785.124C148.654 785.793 147.92 786.127 146.921 786.127C145.935 786.127 145.205 785.801 144.731 785.149C144.257 784.493 144.012 783.516 143.995 782.217V780.649C143.995 779.291 144.229 778.281 144.699 777.621C145.169 776.961 145.905 776.631 146.908 776.631C147.903 776.631 148.635 776.95 149.104 777.589C149.574 778.224 149.815 779.206 149.828 780.535V782.058ZM148.654 780.452C148.654 779.458 148.514 778.734 148.235 778.281C147.956 777.824 147.513 777.596 146.908 777.596C146.307 777.596 145.869 777.822 145.594 778.275C145.319 778.728 145.177 779.424 145.169 780.363V782.242C145.169 783.241 145.313 783.979 145.601 784.458C145.893 784.931 146.333 785.168 146.921 785.168C147.501 785.168 147.93 784.944 148.209 784.496C148.493 784.047 148.641 783.34 148.654 782.375V780.452ZM157.388 786H151.333V785.156L154.532 781.601C155.006 781.064 155.332 780.628 155.509 780.293C155.691 779.955 155.782 779.606 155.782 779.246C155.782 778.764 155.636 778.368 155.344 778.059C155.052 777.75 154.663 777.596 154.176 777.596C153.592 777.596 153.137 777.763 152.812 778.097C152.49 778.427 152.329 778.889 152.329 779.481H151.155C151.155 778.63 151.428 777.943 151.974 777.418C152.524 776.893 153.258 776.631 154.176 776.631C155.035 776.631 155.715 776.857 156.214 777.31C156.713 777.759 156.963 778.357 156.963 779.106C156.963 780.016 156.383 781.1 155.224 782.356L152.748 785.042H157.388V786ZM162.492 786H161.311V778.173L158.943 779.043V777.977L162.308 776.713H162.492V786Z" fill="white"/>
</svg>
