<svg width="595" height="842" viewBox="0 0 595 842" fill="none" xmlns="http://www.w3.org/2000/svg">
<rect width="595" height="842" fill="#372724"/>
<path d="M87.6641 201.434H77.9043L76.0488 207H70.1299L80.1865 179.984H85.3447L95.457 207H89.5381L87.6641 201.434ZM79.4072 196.925H86.1611L82.7656 186.812L79.4072 196.925ZM108.91 191.952C108.18 191.853 107.537 191.804 106.981 191.804C104.952 191.804 103.622 192.49 102.991 193.863V207H97.629V186.924H102.694L102.843 189.317C103.919 187.474 105.41 186.553 107.315 186.553C107.908 186.553 108.465 186.633 108.984 186.794L108.91 191.952ZM119.487 203.048C120.477 203.048 121.281 202.776 121.9 202.231C122.518 201.687 122.84 200.964 122.864 200.061H127.893C127.88 201.421 127.509 202.671 126.779 203.809C126.05 204.934 125.048 205.812 123.774 206.443C122.512 207.062 121.114 207.371 119.58 207.371C116.71 207.371 114.447 206.462 112.789 204.644C111.132 202.813 110.303 200.289 110.303 197.073V196.721C110.303 193.628 111.125 191.16 112.771 189.317C114.416 187.474 116.673 186.553 119.543 186.553C122.054 186.553 124.064 187.27 125.573 188.705C127.095 190.128 127.868 192.026 127.893 194.401H122.864C122.84 193.362 122.518 192.521 121.9 191.878C121.281 191.222 120.465 190.895 119.45 190.895C118.201 190.895 117.255 191.352 116.611 192.268C115.981 193.171 115.665 194.643 115.665 196.684V197.24C115.665 199.306 115.981 200.79 116.611 201.693C117.242 202.596 118.201 203.048 119.487 203.048ZM136.188 189.113C137.61 187.406 139.398 186.553 141.55 186.553C145.904 186.553 148.112 189.082 148.174 194.142V207H142.812V194.29C142.812 193.14 142.564 192.292 142.07 191.748C141.575 191.191 140.752 190.913 139.602 190.913C138.031 190.913 136.893 191.519 136.188 192.731V207H130.825V178.5H136.188V189.113ZM157.879 207H152.498V186.924H157.879V207ZM152.183 181.729C152.183 180.924 152.449 180.263 152.981 179.743C153.525 179.224 154.261 178.964 155.189 178.964C156.104 178.964 156.834 179.224 157.378 179.743C157.923 180.263 158.195 180.924 158.195 181.729C158.195 182.545 157.916 183.213 157.36 183.732C156.815 184.252 156.092 184.512 155.189 184.512C154.286 184.512 153.556 184.252 152.999 183.732C152.455 183.213 152.183 182.545 152.183 181.729ZM168.735 181.988V186.924H172.167V190.857H168.735V200.877C168.735 201.619 168.877 202.151 169.162 202.473C169.446 202.794 169.99 202.955 170.794 202.955C171.388 202.955 171.914 202.912 172.372 202.825V206.889C171.32 207.21 170.238 207.371 169.124 207.371C165.364 207.371 163.447 205.472 163.372 201.675V190.857H160.441V186.924H163.372V181.988H168.735ZM184.396 207.371C181.452 207.371 179.052 206.468 177.197 204.662C175.354 202.856 174.432 200.45 174.432 197.444V196.925C174.432 194.909 174.822 193.109 175.601 191.525C176.38 189.93 177.481 188.705 178.904 187.852C180.339 186.986 181.972 186.553 183.802 186.553C186.548 186.553 188.707 187.419 190.278 189.15C191.861 190.882 192.653 193.338 192.653 196.517V198.706H179.869C180.042 200.017 180.561 201.069 181.427 201.86C182.306 202.652 183.413 203.048 184.749 203.048C186.814 203.048 188.429 202.299 189.591 200.803L192.226 203.753C191.422 204.891 190.334 205.782 188.96 206.425C187.587 207.056 186.066 207.371 184.396 207.371ZM183.784 190.895C182.72 190.895 181.854 191.253 181.186 191.971C180.53 192.688 180.11 193.715 179.924 195.051H187.383V194.624C187.359 193.437 187.037 192.521 186.418 191.878C185.8 191.222 184.922 190.895 183.784 190.895ZM204.065 203.048C205.055 203.048 205.859 202.776 206.477 202.231C207.096 201.687 207.417 200.964 207.442 200.061H212.47C212.458 201.421 212.087 202.671 211.357 203.809C210.627 204.934 209.625 205.812 208.351 206.443C207.089 207.062 205.692 207.371 204.158 207.371C201.288 207.371 199.024 206.462 197.367 204.644C195.709 202.813 194.88 200.289 194.88 197.073V196.721C194.88 193.628 195.703 191.16 197.348 189.317C198.993 187.474 201.251 186.553 204.121 186.553C206.632 186.553 208.642 187.27 210.151 188.705C211.672 190.128 212.446 192.026 212.47 194.401H207.442C207.417 193.362 207.096 192.521 206.477 191.878C205.859 191.222 205.042 190.895 204.028 190.895C202.779 190.895 201.832 191.352 201.189 192.268C200.558 193.171 200.243 194.643 200.243 196.684V197.24C200.243 199.306 200.558 200.79 201.189 201.693C201.82 202.596 202.779 203.048 204.065 203.048ZM221.953 181.988V186.924H225.385V190.857H221.953V200.877C221.953 201.619 222.095 202.151 222.38 202.473C222.664 202.794 223.208 202.955 224.012 202.955C224.606 202.955 225.132 202.912 225.59 202.825V206.889C224.538 207.21 223.456 207.371 222.342 207.371C218.582 207.371 216.665 205.472 216.591 201.675V190.857H213.659V186.924H216.591V181.988H221.953ZM240.397 204.959C239.074 206.567 237.243 207.371 234.905 207.371C232.753 207.371 231.108 206.753 229.97 205.516C228.844 204.279 228.269 202.466 228.244 200.079V186.924H233.606V199.894C233.606 201.984 234.559 203.029 236.464 203.029C238.282 203.029 239.531 202.398 240.212 201.137V186.924H245.593V207H240.546L240.397 204.959ZM260.92 191.952C260.19 191.853 259.547 191.804 258.99 191.804C256.961 191.804 255.632 192.49 255.001 193.863V207H249.639V186.924H254.704L254.852 189.317C255.929 187.474 257.419 186.553 259.324 186.553C259.918 186.553 260.474 186.633 260.994 186.794L260.92 191.952ZM272.388 207.371C269.444 207.371 267.044 206.468 265.188 204.662C263.345 202.856 262.424 200.45 262.424 197.444V196.925C262.424 194.909 262.813 193.109 263.593 191.525C264.372 189.93 265.473 188.705 266.895 187.852C268.33 186.986 269.963 186.553 271.794 186.553C274.54 186.553 276.699 187.419 278.269 189.15C279.853 190.882 280.644 193.338 280.644 196.517V198.706H267.86C268.033 200.017 268.553 201.069 269.419 201.86C270.297 202.652 271.404 203.048 272.74 203.048C274.806 203.048 276.42 202.299 277.583 200.803L280.218 203.753C279.414 204.891 278.325 205.782 276.952 206.425C275.579 207.056 274.058 207.371 272.388 207.371ZM271.775 190.895C270.712 190.895 269.846 191.253 269.178 191.971C268.522 192.688 268.102 193.715 267.916 195.051H275.375V194.624C275.35 193.437 275.029 192.521 274.41 191.878C273.792 191.222 272.913 190.895 271.775 190.895ZM294.637 207V190.857H291.65V186.924H294.637V185.217C294.637 182.965 295.28 181.221 296.567 179.984C297.865 178.735 299.678 178.11 302.003 178.11C302.745 178.11 303.654 178.234 304.731 178.481L304.675 182.638C304.23 182.526 303.685 182.471 303.042 182.471C301.026 182.471 300.018 183.417 300.018 185.31V186.924H304.007V190.857H300.018V207H294.637ZM305.956 196.776C305.956 194.785 306.34 193.01 307.107 191.451C307.874 189.893 308.974 188.687 310.409 187.833C311.857 186.979 313.533 186.553 315.438 186.553C318.147 186.553 320.355 187.382 322.062 189.039C323.781 190.697 324.74 192.948 324.938 195.793L324.975 197.166C324.975 200.246 324.115 202.72 322.396 204.588C320.676 206.443 318.369 207.371 315.475 207.371C312.58 207.371 310.267 206.443 308.535 204.588C306.816 202.732 305.956 200.209 305.956 197.018V196.776ZM311.319 197.166C311.319 199.071 311.677 200.531 312.395 201.545C313.112 202.547 314.139 203.048 315.475 203.048C316.774 203.048 317.788 202.553 318.518 201.563C319.248 200.562 319.613 198.966 319.613 196.776C319.613 194.909 319.248 193.461 318.518 192.435C317.788 191.408 316.761 190.895 315.438 190.895C314.127 190.895 313.112 191.408 312.395 192.435C311.677 193.449 311.319 195.026 311.319 197.166ZM339.56 191.952C338.83 191.853 338.187 191.804 337.63 191.804C335.602 191.804 334.272 192.49 333.641 193.863V207H328.279V186.924H333.344L333.492 189.317C334.569 187.474 336.059 186.553 337.964 186.553C338.558 186.553 339.115 186.633 339.634 186.794L339.56 191.952ZM358.042 181.988V186.924H361.475V190.857H358.042V200.877C358.042 201.619 358.185 202.151 358.469 202.473C358.754 202.794 359.298 202.955 360.102 202.955C360.696 202.955 361.221 202.912 361.679 202.825V206.889C360.628 207.21 359.545 207.371 358.432 207.371C354.672 207.371 352.754 205.472 352.68 201.675V190.857H349.749V186.924H352.68V181.988H358.042ZM369.696 189.113C371.118 187.406 372.906 186.553 375.058 186.553C379.412 186.553 381.62 189.082 381.682 194.142V207H376.32V194.29C376.32 193.14 376.072 192.292 375.578 191.748C375.083 191.191 374.26 190.913 373.11 190.913C371.539 190.913 370.401 191.519 369.696 192.731V207H364.334V178.5H369.696V189.113ZM394.968 207.371C392.024 207.371 389.625 206.468 387.769 204.662C385.926 202.856 385.005 200.45 385.005 197.444V196.925C385.005 194.909 385.394 193.109 386.173 191.525C386.953 189.93 388.054 188.705 389.476 187.852C390.911 186.986 392.544 186.553 394.375 186.553C397.121 186.553 399.279 187.419 400.85 189.15C402.434 190.882 403.225 193.338 403.225 196.517V198.706H390.441C390.614 200.017 391.134 201.069 392 201.86C392.878 202.652 393.985 203.048 395.321 203.048C397.387 203.048 399.001 202.299 400.164 200.803L402.798 203.753C401.994 204.891 400.906 205.782 399.533 206.425C398.16 207.056 396.638 207.371 394.968 207.371ZM394.356 190.895C393.292 190.895 392.426 191.253 391.758 191.971C391.103 192.688 390.682 193.715 390.497 195.051H397.956V194.624C397.931 193.437 397.609 192.521 396.991 191.878C396.372 191.222 395.494 190.895 394.356 190.895ZM71.2246 244.813C71.2246 241.684 71.9235 239.191 73.3213 237.336C74.7314 235.48 76.6549 234.553 79.0918 234.553C81.0462 234.553 82.6605 235.283 83.9346 236.742V226.5H89.3154V255H84.4727L84.2129 252.866C82.877 254.536 81.1576 255.371 79.0547 255.371C76.6921 255.371 74.7933 254.443 73.3584 252.588C71.9359 250.72 71.2246 248.129 71.2246 244.813ZM76.5869 245.203C76.5869 247.083 76.9147 248.524 77.5703 249.526C78.2259 250.528 79.1784 251.029 80.4277 251.029C82.0853 251.029 83.2542 250.33 83.9346 248.933V241.01C83.2666 239.612 82.11 238.913 80.4648 238.913C77.8796 238.913 76.5869 241.01 76.5869 245.203ZM99.1319 255H93.7511V234.924H99.1319V255ZM93.4356 229.729C93.4356 228.924 93.7016 228.263 94.2335 227.743C94.7778 227.224 95.5138 226.964 96.4415 226.964C97.3569 226.964 98.0867 227.224 98.6309 227.743C99.1752 228.263 99.4474 228.924 99.4474 229.729C99.4474 230.545 99.169 231.213 98.6124 231.732C98.0681 232.252 97.3445 232.512 96.4415 232.512C95.5385 232.512 94.8087 232.252 94.252 231.732C93.7078 231.213 93.4356 230.545 93.4356 229.729ZM114.441 249.452C114.441 248.797 114.113 248.283 113.457 247.912C112.814 247.529 111.775 247.188 110.34 246.892C105.565 245.89 103.178 243.861 103.178 240.806C103.178 239.024 103.914 237.54 105.386 236.353C106.87 235.153 108.806 234.553 111.194 234.553C113.742 234.553 115.777 235.153 117.298 236.353C118.832 237.552 119.599 239.111 119.599 241.028H114.236C114.236 240.261 113.989 239.631 113.494 239.136C113 238.629 112.226 238.375 111.175 238.375C110.272 238.375 109.573 238.579 109.078 238.987C108.584 239.396 108.336 239.915 108.336 240.546C108.336 241.14 108.614 241.622 109.171 241.993C109.74 242.352 110.693 242.667 112.028 242.939C113.364 243.199 114.49 243.496 115.405 243.83C118.238 244.869 119.654 246.669 119.654 249.229C119.654 251.06 118.869 252.545 117.298 253.683C115.727 254.808 113.698 255.371 111.212 255.371C109.53 255.371 108.033 255.074 106.722 254.48C105.423 253.874 104.403 253.052 103.66 252.013C102.918 250.961 102.547 249.829 102.547 248.617H107.631C107.681 249.57 108.033 250.299 108.689 250.807C109.344 251.314 110.223 251.567 111.323 251.567C112.35 251.567 113.123 251.376 113.643 250.992C114.175 250.596 114.441 250.083 114.441 249.452ZM129.545 229.988V234.924H132.978V238.857H129.545V248.877C129.545 249.619 129.687 250.151 129.972 250.473C130.256 250.794 130.801 250.955 131.605 250.955C132.198 250.955 132.724 250.912 133.182 250.825V254.889C132.13 255.21 131.048 255.371 129.935 255.371C126.174 255.371 124.257 253.472 124.183 249.675V238.857H121.251V234.924H124.183V229.988H129.545ZM147.99 252.959C146.666 254.567 144.835 255.371 142.497 255.371C140.345 255.371 138.7 254.753 137.562 253.516C136.436 252.279 135.861 250.466 135.836 248.079V234.924H141.199V247.894C141.199 249.984 142.151 251.029 144.056 251.029C145.874 251.029 147.124 250.398 147.804 249.137V234.924H153.185V255H148.138L147.99 252.959ZM168.512 239.952C167.782 239.853 167.139 239.804 166.582 239.804C164.554 239.804 163.224 240.49 162.593 241.863V255H157.231V234.924H162.296L162.445 237.317C163.521 235.474 165.011 234.553 166.916 234.553C167.51 234.553 168.067 234.633 168.586 234.794L168.512 239.952ZM189.202 245.147C189.202 248.364 188.515 250.875 187.142 252.681C185.769 254.474 183.852 255.371 181.39 255.371C179.213 255.371 177.475 254.536 176.176 252.866L175.935 255H171.111V226.5H176.473V236.724C177.71 235.276 179.337 234.553 181.353 234.553C183.802 234.553 185.72 235.456 187.105 237.262C188.503 239.055 189.202 241.585 189.202 244.851V245.147ZM183.839 244.758C183.839 242.729 183.518 241.251 182.875 240.323C182.231 239.383 181.273 238.913 179.999 238.913C178.292 238.913 177.116 239.612 176.473 241.01V248.933C177.129 250.343 178.316 251.048 180.036 251.048C181.767 251.048 182.905 250.194 183.45 248.487C183.709 247.671 183.839 246.428 183.839 244.758ZM201.764 255.371C198.82 255.371 196.421 254.468 194.565 252.662C192.722 250.856 191.8 248.45 191.8 245.444V244.925C191.8 242.909 192.19 241.109 192.969 239.525C193.749 237.93 194.85 236.705 196.272 235.852C197.707 234.986 199.34 234.553 201.171 234.553C203.917 234.553 206.075 235.419 207.646 237.15C209.229 238.882 210.021 241.338 210.021 244.517V246.706H197.237C197.41 248.017 197.93 249.069 198.796 249.86C199.674 250.652 200.781 251.048 202.117 251.048C204.183 251.048 205.797 250.299 206.96 248.803L209.594 251.753C208.79 252.891 207.702 253.782 206.329 254.425C204.956 255.056 203.434 255.371 201.764 255.371ZM201.152 238.895C200.088 238.895 199.222 239.253 198.554 239.971C197.899 240.688 197.478 241.715 197.293 243.051H204.752V242.624C204.727 241.437 204.405 240.521 203.787 239.878C203.168 239.222 202.29 238.895 201.152 238.895ZM212.249 244.813C212.249 241.684 212.948 239.191 214.345 237.336C215.756 235.48 217.679 234.553 220.116 234.553C222.07 234.553 223.685 235.283 224.959 236.742V226.5H230.34V255H225.497L225.237 252.866C223.901 254.536 222.182 255.371 220.079 255.371C217.716 255.371 215.817 254.443 214.383 252.588C212.96 250.72 212.249 248.129 212.249 244.813ZM217.611 245.203C217.611 247.083 217.939 248.524 218.594 249.526C219.25 250.528 220.203 251.029 221.452 251.029C223.109 251.029 224.278 250.33 224.959 248.933V241.01C224.291 239.612 223.134 238.913 221.489 238.913C218.904 238.913 217.611 241.01 217.611 245.203ZM248.989 234.924L249.156 237.169C250.579 235.425 252.502 234.553 254.927 234.553C257.512 234.553 259.287 235.573 260.252 237.614C261.662 235.573 263.672 234.553 266.282 234.553C268.459 234.553 270.08 235.19 271.143 236.464C272.207 237.726 272.739 239.631 272.739 242.179V255H267.358V242.197C267.358 241.059 267.136 240.23 266.69 239.711C266.245 239.179 265.46 238.913 264.334 238.913C262.726 238.913 261.613 239.68 260.994 241.214L261.013 255H255.65V242.216C255.65 241.053 255.421 240.212 254.964 239.692C254.506 239.173 253.727 238.913 252.626 238.913C251.104 238.913 250.003 239.544 249.323 240.806V255H243.961V234.924H248.989ZM282.537 255H277.156V234.924H282.537V255ZM276.841 229.729C276.841 228.924 277.107 228.263 277.639 227.743C278.183 227.224 278.919 226.964 279.847 226.964C280.762 226.964 281.492 227.224 282.036 227.743C282.58 228.263 282.852 228.924 282.852 229.729C282.852 230.545 282.574 231.213 282.018 231.732C281.473 232.252 280.75 232.512 279.847 232.512C278.944 232.512 278.214 232.252 277.657 231.732C277.113 231.213 276.841 230.545 276.841 229.729ZM291.908 234.924L292.075 237.243C293.51 235.45 295.434 234.553 297.846 234.553C299.973 234.553 301.557 235.177 302.596 236.427C303.635 237.676 304.167 239.544 304.191 242.03V255H298.829V242.16C298.829 241.022 298.582 240.2 298.087 239.692C297.592 239.173 296.77 238.913 295.619 238.913C294.11 238.913 292.978 239.556 292.224 240.843V255H286.861V234.924H291.908ZM307.44 244.813C307.44 241.684 308.138 239.191 309.536 237.336C310.946 235.48 312.87 234.553 315.307 234.553C317.261 234.553 318.875 235.283 320.15 236.742V226.5H325.53V255H320.688L320.428 252.866C319.092 254.536 317.373 255.371 315.27 255.371C312.907 255.371 311.008 254.443 309.573 252.588C308.151 250.72 307.44 248.129 307.44 244.813ZM312.802 245.203C312.802 247.083 313.13 248.524 313.785 249.526C314.441 250.528 315.393 251.029 316.643 251.029C318.3 251.029 319.469 250.33 320.15 248.933V241.01C319.482 239.612 318.325 238.913 316.68 238.913C314.095 238.913 312.802 241.01 312.802 245.203Z" fill="white"/>
<path d="M79.2969 376.07H74.1602L73.1836 379H70.0684L75.3613 364.781H78.0762L83.3984 379H80.2832L79.2969 376.07ZM74.9512 373.697H78.5059L76.7188 368.375L74.9512 373.697ZM84.1026 373.639C84.1026 371.992 84.4705 370.68 85.2061 369.703C85.9483 368.727 86.9607 368.238 88.2432 368.238C89.2719 368.238 90.1215 368.622 90.7921 369.391V364H93.6241V379H91.0753L90.9386 377.877C90.2354 378.756 89.3305 379.195 88.2237 379.195C86.9802 379.195 85.9809 378.707 85.2257 377.73C84.477 376.747 84.1026 375.383 84.1026 373.639ZM86.9249 373.844C86.9249 374.833 87.0974 375.592 87.4425 376.119C87.7875 376.646 88.2888 376.91 88.9464 376.91C89.8188 376.91 90.434 376.542 90.7921 375.807V371.637C90.4405 370.901 89.8318 370.533 88.9659 370.533C87.6052 370.533 86.9249 371.637 86.9249 373.844ZM95.3732 373.639C95.3732 371.992 95.7411 370.68 96.4767 369.703C97.2189 368.727 98.2313 368.238 99.5138 368.238C100.542 368.238 101.392 368.622 102.063 369.391V364H104.895V379H102.346L102.209 377.877C101.506 378.756 100.601 379.195 99.4943 379.195C98.2508 379.195 97.2515 378.707 96.4963 377.73C95.7476 376.747 95.3732 375.383 95.3732 373.639ZM98.1955 373.844C98.1955 374.833 98.368 375.592 98.7131 376.119C99.0581 376.646 99.5594 376.91 100.217 376.91C101.089 376.91 101.705 376.542 102.063 375.807V371.637C101.711 370.901 101.102 370.533 100.236 370.533C98.8758 370.533 98.1955 371.637 98.1955 373.844ZM113.021 371.08C112.637 371.028 112.298 371.002 112.005 371.002C110.937 371.002 110.238 371.363 109.906 372.086V379H107.083V368.434H109.749L109.827 369.693C110.394 368.723 111.178 368.238 112.181 368.238C112.493 368.238 112.786 368.281 113.06 368.365L113.021 371.08ZM119.057 379.195C117.508 379.195 116.244 378.72 115.268 377.77C114.298 376.819 113.813 375.553 113.813 373.971V373.697C113.813 372.636 114.018 371.689 114.428 370.855C114.838 370.016 115.418 369.371 116.166 368.922C116.922 368.466 117.781 368.238 118.744 368.238C120.19 368.238 121.326 368.694 122.153 369.605C122.986 370.517 123.403 371.809 123.403 373.482V374.635H116.674C116.765 375.325 117.039 375.878 117.494 376.295C117.957 376.712 118.539 376.92 119.243 376.92C120.33 376.92 121.179 376.526 121.791 375.738L123.178 377.291C122.755 377.89 122.182 378.359 121.459 378.697C120.737 379.029 119.936 379.195 119.057 379.195ZM118.735 370.523C118.175 370.523 117.719 370.712 117.368 371.09C117.022 371.467 116.801 372.008 116.703 372.711H120.629V372.486C120.616 371.861 120.447 371.38 120.121 371.041C119.796 370.696 119.334 370.523 118.735 370.523ZM130.738 376.08C130.738 375.735 130.565 375.465 130.22 375.27C129.882 375.068 129.335 374.889 128.58 374.732C126.067 374.205 124.81 373.137 124.81 371.529C124.81 370.592 125.197 369.811 125.972 369.186C126.753 368.554 127.772 368.238 129.029 368.238C130.37 368.238 131.441 368.554 132.242 369.186C133.049 369.817 133.453 370.637 133.453 371.646H130.63C130.63 371.243 130.5 370.911 130.24 370.65C129.979 370.383 129.572 370.25 129.019 370.25C128.544 370.25 128.176 370.357 127.915 370.572C127.655 370.787 127.525 371.061 127.525 371.393C127.525 371.705 127.671 371.959 127.964 372.154C128.264 372.343 128.765 372.509 129.468 372.652C130.171 372.789 130.764 372.945 131.246 373.121C132.736 373.668 133.482 374.615 133.482 375.963C133.482 376.926 133.068 377.708 132.242 378.307C131.415 378.899 130.347 379.195 129.039 379.195C128.153 379.195 127.365 379.039 126.675 378.727C125.992 378.408 125.455 377.975 125.064 377.428C124.673 376.874 124.478 376.279 124.478 375.641H127.154C127.18 376.142 127.365 376.526 127.71 376.793C128.055 377.06 128.518 377.193 129.097 377.193C129.637 377.193 130.044 377.092 130.318 376.891C130.598 376.682 130.738 376.412 130.738 376.08ZM141.032 376.08C141.032 375.735 140.859 375.465 140.514 375.27C140.176 375.068 139.629 374.889 138.874 374.732C136.361 374.205 135.104 373.137 135.104 371.529C135.104 370.592 135.491 369.811 136.266 369.186C137.047 368.554 138.066 368.238 139.323 368.238C140.664 368.238 141.735 368.554 142.536 369.186C143.343 369.817 143.747 370.637 143.747 371.646H140.924C140.924 371.243 140.794 370.911 140.534 370.65C140.273 370.383 139.866 370.25 139.313 370.25C138.838 370.25 138.47 370.357 138.209 370.572C137.949 370.787 137.819 371.061 137.819 371.393C137.819 371.705 137.965 371.959 138.258 372.154C138.558 372.343 139.059 372.509 139.762 372.652C140.465 372.789 141.058 372.945 141.54 373.121C143.03 373.668 143.776 374.615 143.776 375.963C143.776 376.926 143.362 377.708 142.536 378.307C141.709 378.899 140.641 379.195 139.333 379.195C138.447 379.195 137.659 379.039 136.969 378.727C136.286 378.408 135.749 377.975 135.358 377.428C134.967 376.874 134.772 376.279 134.772 375.641H137.448C137.474 376.142 137.659 376.526 138.004 376.793C138.349 377.06 138.812 377.193 139.391 377.193C139.932 377.193 140.338 377.092 140.612 376.891C140.892 376.682 141.032 376.412 141.032 376.08ZM148.582 379H145.75V368.434H148.582V379ZM145.584 365.699C145.584 365.276 145.724 364.928 146.004 364.654C146.29 364.381 146.677 364.244 147.166 364.244C147.647 364.244 148.032 364.381 148.318 364.654C148.604 364.928 148.748 365.276 148.748 365.699C148.748 366.129 148.601 366.48 148.308 366.754C148.022 367.027 147.641 367.164 147.166 367.164C146.69 367.164 146.306 367.027 146.013 366.754C145.727 366.48 145.584 366.129 145.584 365.699ZM153.514 368.434L153.602 369.654C154.357 368.71 155.37 368.238 156.639 368.238C157.759 368.238 158.592 368.567 159.139 369.225C159.686 369.882 159.966 370.865 159.979 372.174V379H157.157V372.242C157.157 371.643 157.027 371.21 156.766 370.943C156.506 370.67 156.073 370.533 155.467 370.533C154.673 370.533 154.078 370.872 153.68 371.549V379H150.858V368.434H153.514ZM161.719 373.639C161.719 372.018 162.103 370.712 162.871 369.723C163.646 368.733 164.687 368.238 165.996 368.238C167.155 368.238 168.056 368.635 168.701 369.43L168.818 368.434H171.377V378.648C171.377 379.573 171.165 380.377 170.742 381.061C170.325 381.744 169.736 382.265 168.974 382.623C168.213 382.981 167.321 383.16 166.299 383.16C165.524 383.16 164.769 383.004 164.033 382.691C163.297 382.385 162.741 381.988 162.363 381.5L163.613 379.781C164.316 380.569 165.169 380.963 166.172 380.963C166.92 380.963 167.503 380.761 167.92 380.357C168.336 379.96 168.545 379.394 168.545 378.658V378.092C167.894 378.827 167.038 379.195 165.976 379.195C164.707 379.195 163.678 378.701 162.89 377.711C162.109 376.715 161.719 375.396 161.719 373.756V373.639ZM164.541 373.844C164.541 374.801 164.733 375.553 165.117 376.1C165.501 376.64 166.028 376.91 166.699 376.91C167.558 376.91 168.174 376.588 168.545 375.943V371.5C168.167 370.855 167.558 370.533 166.719 370.533C166.041 370.533 165.508 370.81 165.117 371.363C164.733 371.917 164.541 372.743 164.541 373.844ZM181.184 368.434L181.271 369.615C182.02 368.697 183.033 368.238 184.309 368.238C185.669 368.238 186.603 368.775 187.111 369.85C187.853 368.775 188.911 368.238 190.285 368.238C191.431 368.238 192.284 368.574 192.844 369.244C193.404 369.908 193.684 370.911 193.684 372.252V379H190.852V372.262C190.852 371.663 190.734 371.227 190.5 370.953C190.266 370.673 189.852 370.533 189.26 370.533C188.413 370.533 187.827 370.937 187.502 371.744L187.512 379H184.689V372.271C184.689 371.66 184.569 371.217 184.328 370.943C184.087 370.67 183.677 370.533 183.098 370.533C182.297 370.533 181.717 370.865 181.359 371.529V379H178.537V368.434H181.184ZM200.726 379.195C199.176 379.195 197.913 378.72 196.937 377.77C195.967 376.819 195.481 375.553 195.481 373.971V373.697C195.481 372.636 195.687 371.689 196.097 370.855C196.507 370.016 197.086 369.371 197.835 368.922C198.59 368.466 199.45 368.238 200.413 368.238C201.858 368.238 202.995 368.694 203.821 369.605C204.655 370.517 205.071 371.809 205.071 373.482V374.635H198.343C198.434 375.325 198.707 375.878 199.163 376.295C199.625 376.712 200.208 376.92 200.911 376.92C201.998 376.92 202.848 376.526 203.46 375.738L204.847 377.291C204.424 377.89 203.851 378.359 203.128 378.697C202.405 379.029 201.605 379.195 200.726 379.195ZM200.403 370.523C199.843 370.523 199.388 370.712 199.036 371.09C198.691 371.467 198.47 372.008 198.372 372.711H202.298V372.486C202.285 371.861 202.116 371.38 201.79 371.041C201.465 370.696 201.002 370.523 200.403 370.523ZM209.281 368.434L209.369 369.654C210.124 368.71 211.137 368.238 212.406 368.238C213.526 368.238 214.359 368.567 214.906 369.225C215.453 369.882 215.733 370.865 215.746 372.174V379H212.924V372.242C212.924 371.643 212.794 371.21 212.533 370.943C212.273 370.67 211.84 370.533 211.234 370.533C210.44 370.533 209.845 370.872 209.447 371.549V379H206.625V368.434H209.281ZM221.275 365.836V368.434H223.081V370.504H221.275V375.777C221.275 376.168 221.349 376.448 221.499 376.617C221.649 376.786 221.935 376.871 222.359 376.871C222.671 376.871 222.948 376.848 223.189 376.803V378.941C222.635 379.111 222.066 379.195 221.48 379.195C219.501 379.195 218.491 378.196 218.452 376.197V370.504H216.909V368.434H218.452V365.836H221.275ZM230.778 379C230.647 378.746 230.553 378.43 230.494 378.053C229.811 378.814 228.922 379.195 227.828 379.195C226.793 379.195 225.934 378.896 225.25 378.297C224.573 377.698 224.235 376.943 224.235 376.031C224.235 374.911 224.648 374.052 225.475 373.453C226.308 372.854 227.509 372.551 229.078 372.545H230.377V371.939C230.377 371.451 230.25 371.061 229.996 370.768C229.749 370.475 229.355 370.328 228.815 370.328C228.339 370.328 227.965 370.442 227.692 370.67C227.425 370.898 227.291 371.21 227.291 371.607H224.469C224.469 370.995 224.658 370.429 225.035 369.908C225.413 369.387 225.947 368.98 226.637 368.688C227.327 368.388 228.102 368.238 228.961 368.238C230.263 368.238 231.295 368.567 232.057 369.225C232.825 369.876 233.209 370.794 233.209 371.979V376.559C233.216 377.561 233.356 378.32 233.629 378.834V379H230.778ZM228.444 377.037C228.86 377.037 229.244 376.946 229.596 376.764C229.948 376.575 230.208 376.324 230.377 376.012V374.195H229.323C227.91 374.195 227.158 374.684 227.067 375.66L227.057 375.826C227.057 376.178 227.181 376.467 227.428 376.695C227.675 376.923 228.014 377.037 228.444 377.037ZM238.357 379H235.525V364H238.357V379ZM248.427 369.586C249.176 368.688 250.117 368.238 251.25 368.238C253.541 368.238 254.703 369.57 254.736 372.232V379H251.914V372.311C251.914 371.705 251.783 371.259 251.523 370.973C251.263 370.68 250.83 370.533 250.224 370.533C249.397 370.533 248.798 370.852 248.427 371.49V379H245.605V364H248.427V369.586ZM261.729 379.195C260.18 379.195 258.917 378.72 257.94 377.77C256.97 376.819 256.485 375.553 256.485 373.971V373.697C256.485 372.636 256.69 371.689 257.1 370.855C257.51 370.016 258.09 369.371 258.839 368.922C259.594 368.466 260.453 368.238 261.417 368.238C262.862 368.238 263.998 368.694 264.825 369.605C265.658 370.517 266.075 371.809 266.075 373.482V374.635H259.346C259.437 375.325 259.711 375.878 260.167 376.295C260.629 376.712 261.212 376.92 261.915 376.92C263.002 376.92 263.852 376.526 264.464 375.738L265.85 377.291C265.427 377.89 264.854 378.359 264.132 378.697C263.409 379.029 262.608 379.195 261.729 379.195ZM261.407 370.523C260.847 370.523 260.391 370.712 260.04 371.09C259.695 371.467 259.473 372.008 259.376 372.711H263.301V372.486C263.288 371.861 263.119 371.38 262.794 371.041C262.468 370.696 262.006 370.523 261.407 370.523ZM273.81 379C273.68 378.746 273.586 378.43 273.527 378.053C272.843 378.814 271.955 379.195 270.861 379.195C269.826 379.195 268.967 378.896 268.283 378.297C267.606 377.698 267.267 376.943 267.267 376.031C267.267 374.911 267.681 374.052 268.508 373.453C269.341 372.854 270.542 372.551 272.111 372.545H273.41V371.939C273.41 371.451 273.283 371.061 273.029 370.768C272.782 370.475 272.388 370.328 271.847 370.328C271.372 370.328 270.998 370.442 270.724 370.67C270.457 370.898 270.324 371.21 270.324 371.607H267.502C267.502 370.995 267.69 370.429 268.068 369.908C268.446 369.387 268.98 368.98 269.67 368.688C270.36 368.388 271.135 368.238 271.994 368.238C273.296 368.238 274.328 368.567 275.09 369.225C275.858 369.876 276.242 370.794 276.242 371.979V376.559C276.248 377.561 276.388 378.32 276.662 378.834V379H273.81ZM271.476 377.037C271.893 377.037 272.277 376.946 272.629 376.764C272.98 376.575 273.241 376.324 273.41 376.012V374.195H272.355C270.942 374.195 270.19 374.684 270.099 375.66L270.09 375.826C270.09 376.178 270.213 376.467 270.461 376.695C270.708 376.923 271.047 377.037 271.476 377.037ZM281.389 379H278.557V364H281.389V379ZM287.103 365.836V368.434H288.91V370.504H287.103V375.777C287.103 376.168 287.178 376.448 287.328 376.617C287.478 376.786 287.764 376.871 288.187 376.871C288.5 376.871 288.777 376.848 289.018 376.803V378.941C288.464 379.111 287.894 379.195 287.309 379.195C285.329 379.195 284.32 378.196 284.281 376.197V370.504H282.738V368.434H284.281V365.836H287.103ZM293.237 369.586C293.986 368.688 294.927 368.238 296.06 368.238C298.351 368.238 299.513 369.57 299.546 372.232V379H296.724V372.311C296.724 371.705 296.593 371.259 296.333 370.973C296.073 370.68 295.64 370.533 295.034 370.533C294.207 370.533 293.608 370.852 293.237 371.49V379H290.415V364H293.237V369.586ZM309.636 379H306.804V368.434H309.636V379ZM306.638 365.699C306.638 365.276 306.778 364.928 307.058 364.654C307.344 364.381 307.732 364.244 308.22 364.244C308.702 364.244 309.086 364.381 309.372 364.654C309.659 364.928 309.802 365.276 309.802 365.699C309.802 366.129 309.655 366.48 309.362 366.754C309.076 367.027 308.695 367.164 308.22 367.164C307.745 367.164 307.361 367.027 307.068 366.754C306.781 366.48 306.638 366.129 306.638 365.699ZM317.694 376.08C317.694 375.735 317.521 375.465 317.176 375.27C316.837 375.068 316.291 374.889 315.535 374.732C313.022 374.205 311.766 373.137 311.766 371.529C311.766 370.592 312.153 369.811 312.928 369.186C313.709 368.554 314.728 368.238 315.985 368.238C317.326 368.238 318.397 368.554 319.198 369.186C320.005 369.817 320.408 370.637 320.408 371.646H317.586C317.586 371.243 317.456 370.911 317.196 370.65C316.935 370.383 316.528 370.25 315.975 370.25C315.5 370.25 315.132 370.357 314.871 370.572C314.611 370.787 314.481 371.061 314.481 371.393C314.481 371.705 314.627 371.959 314.92 372.154C315.22 372.343 315.721 372.509 316.424 372.652C317.127 372.789 317.72 372.945 318.201 373.121C319.692 373.668 320.438 374.615 320.438 375.963C320.438 376.926 320.024 377.708 319.198 378.307C318.371 378.899 317.303 379.195 315.994 379.195C315.109 379.195 314.321 379.039 313.631 378.727C312.948 378.408 312.41 377.975 312.02 377.428C311.629 376.874 311.434 376.279 311.434 375.641H314.11C314.136 376.142 314.321 376.526 314.666 376.793C315.011 377.06 315.474 377.193 316.053 377.193C316.593 377.193 317 377.092 317.274 376.891C317.554 376.682 317.694 376.412 317.694 376.08ZM327.988 376.08C327.988 375.735 327.815 375.465 327.47 375.27C327.132 375.068 326.585 374.889 325.829 374.732C323.316 374.205 322.06 373.137 322.06 371.529C322.06 370.592 322.447 369.811 323.222 369.186C324.003 368.554 325.022 368.238 326.279 368.238C327.62 368.238 328.691 368.554 329.492 369.186C330.299 369.817 330.702 370.637 330.702 371.646H327.88C327.88 371.243 327.75 370.911 327.49 370.65C327.229 370.383 326.822 370.25 326.269 370.25C325.794 370.25 325.426 370.357 325.165 370.572C324.905 370.787 324.775 371.061 324.775 371.393C324.775 371.705 324.921 371.959 325.214 372.154C325.514 372.343 326.015 372.509 326.718 372.652C327.421 372.789 328.014 372.945 328.495 373.121C329.986 373.668 330.732 374.615 330.732 375.963C330.732 376.926 330.318 377.708 329.492 378.307C328.665 378.899 327.597 379.195 326.288 379.195C325.403 379.195 324.615 379.039 323.925 378.727C323.242 378.408 322.704 377.975 322.314 377.428C321.923 376.874 321.728 376.279 321.728 375.641H324.404C324.43 376.142 324.615 376.526 324.96 376.793C325.305 377.06 325.768 377.193 326.347 377.193C326.887 377.193 327.294 377.092 327.568 376.891C327.848 376.682 327.988 376.412 327.988 376.08ZM338.887 377.926C338.191 378.772 337.227 379.195 335.997 379.195C334.864 379.195 333.998 378.87 333.399 378.219C332.806 377.568 332.504 376.614 332.491 375.357V368.434H335.313V375.26C335.313 376.36 335.814 376.91 336.817 376.91C337.774 376.91 338.431 376.578 338.789 375.914V368.434H341.622V379H338.965L338.887 377.926ZM348.615 379.195C347.065 379.195 345.802 378.72 344.826 377.77C343.856 376.819 343.371 375.553 343.371 373.971V373.697C343.371 372.636 343.576 371.689 343.986 370.855C344.396 370.016 344.975 369.371 345.724 368.922C346.479 368.466 347.339 368.238 348.302 368.238C349.748 368.238 350.884 368.694 351.71 369.605C352.544 370.517 352.96 371.809 352.96 373.482V374.635H346.232C346.323 375.325 346.597 375.878 347.052 376.295C347.515 376.712 348.097 376.92 348.8 376.92C349.888 376.92 350.737 376.526 351.349 375.738L352.736 377.291C352.313 377.89 351.74 378.359 351.017 378.697C350.294 379.029 349.494 379.195 348.615 379.195ZM348.293 370.523C347.733 370.523 347.277 370.712 346.925 371.09C346.58 371.467 346.359 372.008 346.261 372.711H350.187V372.486C350.174 371.861 350.005 371.38 349.679 371.041C349.354 370.696 348.891 370.523 348.293 370.523ZM360.296 376.08C360.296 375.735 360.123 375.465 359.778 375.27C359.439 375.068 358.893 374.889 358.137 374.732C355.624 374.205 354.368 373.137 354.368 371.529C354.368 370.592 354.755 369.811 355.53 369.186C356.311 368.554 357.33 368.238 358.587 368.238C359.928 368.238 360.999 368.554 361.799 369.186C362.607 369.817 363.01 370.637 363.01 371.646H360.188C360.188 371.243 360.058 370.911 359.797 370.65C359.537 370.383 359.13 370.25 358.577 370.25C358.102 370.25 357.734 370.357 357.473 370.572C357.213 370.787 357.083 371.061 357.083 371.393C357.083 371.705 357.229 371.959 357.522 372.154C357.822 372.343 358.323 372.509 359.026 372.652C359.729 372.789 360.322 372.945 360.803 373.121C362.294 373.668 363.04 374.615 363.04 375.963C363.04 376.926 362.626 377.708 361.799 378.307C360.973 378.899 359.905 379.195 358.596 379.195C357.711 379.195 356.923 379.039 356.233 378.727C355.549 378.408 355.012 377.975 354.622 377.428C354.231 376.874 354.036 376.279 354.036 375.641H356.712C356.738 376.142 356.923 376.526 357.268 376.793C357.613 377.06 358.075 377.193 358.655 377.193C359.195 377.193 359.602 377.092 359.876 376.891C360.156 376.682 360.296 376.412 360.296 376.08ZM74.0625 407H71.2305V396.434H74.0625V407ZM71.0645 393.699C71.0645 393.276 71.2044 392.928 71.4844 392.654C71.7708 392.381 72.1582 392.244 72.6465 392.244C73.1283 392.244 73.5124 392.381 73.7988 392.654C74.0853 392.928 74.2285 393.276 74.2285 393.699C74.2285 394.129 74.082 394.48 73.7891 394.754C73.5026 395.027 73.1217 395.164 72.6465 395.164C72.1712 395.164 71.7871 395.027 71.4941 394.754C71.2077 394.48 71.0645 394.129 71.0645 393.699ZM78.9952 396.434L79.0831 397.654C79.8383 396.71 80.8507 396.238 82.1202 396.238C83.24 396.238 84.0733 396.567 84.6202 397.225C85.1671 397.882 85.447 398.865 85.46 400.174V407H82.6378V400.242C82.6378 399.643 82.5076 399.21 82.2472 398.943C81.9867 398.67 81.5538 398.533 80.9483 398.533C80.1541 398.533 79.5584 398.872 79.1612 399.549V407H76.339V396.434H78.9952ZM95.97 393.836V396.434H97.7766V398.504H95.97V403.777C95.97 404.168 96.0449 404.448 96.1946 404.617C96.3443 404.786 96.6308 404.871 97.054 404.871C97.3665 404.871 97.6432 404.848 97.884 404.803V406.941C97.3307 407.111 96.761 407.195 96.1751 407.195C94.1959 407.195 93.1868 406.196 93.1477 404.197V398.504H91.6047V396.434H93.1477V393.836H95.97ZM102.104 397.586C102.853 396.688 103.793 396.238 104.926 396.238C107.218 396.238 108.38 397.57 108.412 400.232V407H105.59V400.311C105.59 399.705 105.46 399.259 105.2 398.973C104.939 398.68 104.506 398.533 103.901 398.533C103.074 398.533 102.475 398.852 102.104 399.49V407H99.2816V392H102.104V397.586ZM115.406 407.195C113.856 407.195 112.593 406.72 111.617 405.77C110.647 404.819 110.162 403.553 110.162 401.971V401.697C110.162 400.636 110.367 399.689 110.777 398.855C111.187 398.016 111.766 397.371 112.515 396.922C113.27 396.466 114.13 396.238 115.093 396.238C116.539 396.238 117.675 396.694 118.501 397.605C119.335 398.517 119.751 399.809 119.751 401.482V402.635H113.023C113.114 403.325 113.387 403.878 113.843 404.295C114.305 404.712 114.888 404.92 115.591 404.92C116.678 404.92 117.528 404.526 118.14 403.738L119.527 405.291C119.104 405.89 118.531 406.359 117.808 406.697C117.085 407.029 116.285 407.195 115.406 407.195ZM115.083 398.523C114.524 398.523 114.068 398.712 113.716 399.09C113.371 399.467 113.15 400.008 113.052 400.711H116.978V400.486C116.965 399.861 116.796 399.38 116.47 399.041C116.145 398.696 115.682 398.523 115.083 398.523ZM130.74 404.92C131.261 404.92 131.684 404.777 132.009 404.49C132.335 404.204 132.504 403.823 132.517 403.348H135.164C135.157 404.064 134.962 404.721 134.578 405.32C134.194 405.913 133.666 406.375 132.996 406.707C132.332 407.033 131.596 407.195 130.789 407.195C129.278 407.195 128.087 406.717 127.214 405.76C126.342 404.796 125.906 403.468 125.906 401.775V401.59C125.906 399.962 126.339 398.663 127.205 397.693C128.071 396.723 129.259 396.238 130.769 396.238C132.091 396.238 133.149 396.616 133.943 397.371C134.744 398.12 135.151 399.119 135.164 400.369H132.517C132.504 399.822 132.335 399.38 132.009 399.041C131.684 398.696 131.254 398.523 130.72 398.523C130.063 398.523 129.565 398.764 129.226 399.246C128.894 399.721 128.728 400.496 128.728 401.57V401.863C128.728 402.951 128.894 403.732 129.226 404.207C129.558 404.682 130.063 404.92 130.74 404.92ZM136.337 401.619C136.337 400.571 136.538 399.637 136.942 398.816C137.346 397.996 137.925 397.361 138.68 396.912C139.442 396.463 140.324 396.238 141.327 396.238C142.753 396.238 143.915 396.674 144.813 397.547C145.718 398.419 146.223 399.604 146.327 401.102L146.346 401.824C146.346 403.445 145.894 404.747 144.989 405.73C144.084 406.707 142.87 407.195 141.346 407.195C139.823 407.195 138.605 406.707 137.694 405.73C136.789 404.754 136.337 403.426 136.337 401.746V401.619ZM139.159 401.824C139.159 402.827 139.348 403.595 139.725 404.129C140.103 404.656 140.643 404.92 141.346 404.92C142.03 404.92 142.564 404.66 142.948 404.139C143.332 403.611 143.524 402.771 143.524 401.619C143.524 400.636 143.332 399.874 142.948 399.334C142.564 398.794 142.023 398.523 141.327 398.523C140.637 398.523 140.103 398.794 139.725 399.334C139.348 399.868 139.159 400.698 139.159 401.824ZM150.683 396.434L150.771 397.654C151.526 396.71 152.539 396.238 153.808 396.238C154.928 396.238 155.762 396.567 156.308 397.225C156.855 397.882 157.135 398.865 157.148 400.174V407H154.326V400.242C154.326 399.643 154.196 399.21 153.935 398.943C153.675 398.67 153.242 398.533 152.637 398.533C151.842 398.533 151.247 398.872 150.849 399.549V407H148.027V396.434H150.683ZM162.677 393.836V396.434H164.483V398.504H162.677V403.777C162.677 404.168 162.751 404.448 162.901 404.617C163.051 404.786 163.337 404.871 163.761 404.871C164.073 404.871 164.35 404.848 164.591 404.803V406.941C164.037 407.111 163.468 407.195 162.882 407.195C160.903 407.195 159.893 406.196 159.854 404.197V398.504H158.311V396.434H159.854V393.836H162.677ZM170.92 407.195C169.37 407.195 168.107 406.72 167.131 405.77C166.161 404.819 165.676 403.553 165.676 401.971V401.697C165.676 400.636 165.881 399.689 166.291 398.855C166.701 398.016 167.281 397.371 168.029 396.922C168.784 396.466 169.644 396.238 170.607 396.238C172.053 396.238 173.189 396.694 174.016 397.605C174.849 398.517 175.266 399.809 175.266 401.482V402.635H168.537C168.628 403.325 168.902 403.878 169.357 404.295C169.82 404.712 170.402 404.92 171.105 404.92C172.193 404.92 173.042 404.526 173.654 403.738L175.041 405.291C174.618 405.89 174.045 406.359 173.322 406.697C172.6 407.029 171.799 407.195 170.92 407.195ZM170.598 398.523C170.038 398.523 169.582 398.712 169.23 399.09C168.885 399.467 168.664 400.008 168.566 400.711H172.492V400.486C172.479 399.861 172.31 399.38 171.984 399.041C171.659 398.696 171.197 398.523 170.598 398.523ZM180.901 399.588L182.679 396.434H185.696L182.689 401.609L185.823 407H182.796L180.911 403.68L179.036 407H175.999L179.134 401.609L176.136 396.434H179.163L180.901 399.588ZM190.434 393.836V396.434H192.24V398.504H190.434V403.777C190.434 404.168 190.509 404.448 190.658 404.617C190.808 404.786 191.095 404.871 191.518 404.871C191.83 404.871 192.107 404.848 192.348 404.803V406.941C191.794 407.111 191.225 407.195 190.639 407.195C188.66 407.195 187.651 406.196 187.611 404.197V398.504H186.068V396.434H187.611V393.836H190.434ZM198.356 401.619C198.356 400.571 198.558 399.637 198.961 398.816C199.365 397.996 199.944 397.361 200.7 396.912C201.461 396.463 202.343 396.238 203.346 396.238C204.772 396.238 205.934 396.674 206.832 397.547C207.737 398.419 208.242 399.604 208.346 401.102L208.366 401.824C208.366 403.445 207.913 404.747 207.008 405.73C206.103 406.707 204.889 407.195 203.366 407.195C201.842 407.195 200.625 406.707 199.713 405.73C198.808 404.754 198.356 403.426 198.356 401.746V401.619ZM201.178 401.824C201.178 402.827 201.367 403.595 201.744 404.129C202.122 404.656 202.662 404.92 203.366 404.92C204.049 404.92 204.583 404.66 204.967 404.139C205.351 403.611 205.543 402.771 205.543 401.619C205.543 400.636 205.351 399.874 204.967 399.334C204.583 398.794 204.043 398.523 203.346 398.523C202.656 398.523 202.122 398.794 201.744 399.334C201.367 399.868 201.178 400.698 201.178 401.824ZM210.876 407V398.504H209.304V396.434H210.876V395.535C210.876 394.35 211.215 393.432 211.892 392.781C212.576 392.124 213.529 391.795 214.753 391.795C215.144 391.795 215.622 391.86 216.189 391.99L216.16 394.178C215.925 394.119 215.639 394.09 215.3 394.09C214.239 394.09 213.708 394.588 213.708 395.584V396.434H215.808V398.504H213.708V407H210.876ZM228.378 407C228.248 406.746 228.154 406.43 228.095 406.053C227.412 406.814 226.523 407.195 225.429 407.195C224.394 407.195 223.535 406.896 222.851 406.297C222.174 405.698 221.836 404.943 221.836 404.031C221.836 402.911 222.249 402.052 223.076 401.453C223.909 400.854 225.11 400.551 226.679 400.545H227.978V399.939C227.978 399.451 227.851 399.061 227.597 398.768C227.35 398.475 226.956 398.328 226.416 398.328C225.94 398.328 225.566 398.442 225.293 398.67C225.026 398.898 224.892 399.21 224.892 399.607H222.07C222.07 398.995 222.259 398.429 222.636 397.908C223.014 397.387 223.548 396.98 224.238 396.688C224.928 396.388 225.703 396.238 226.562 396.238C227.864 396.238 228.896 396.567 229.658 397.225C230.426 397.876 230.81 398.794 230.81 399.979V404.559C230.817 405.561 230.957 406.32 231.23 406.834V407H228.378ZM226.044 405.037C226.461 405.037 226.845 404.946 227.197 404.764C227.548 404.575 227.809 404.324 227.978 404.012V402.195H226.923C225.511 402.195 224.759 402.684 224.668 403.66L224.658 403.826C224.658 404.178 224.781 404.467 225.029 404.695C225.276 404.923 225.615 405.037 226.044 405.037ZM238.917 399.08C238.533 399.028 238.194 399.002 237.901 399.002C236.833 399.002 236.133 399.363 235.801 400.086V407H232.979V396.434H235.645L235.723 397.693C236.29 396.723 237.074 396.238 238.077 396.238C238.389 396.238 238.682 396.281 238.956 396.365L238.917 399.08ZM244.484 404.92C245.005 404.92 245.428 404.777 245.754 404.49C246.079 404.204 246.248 403.823 246.261 403.348H248.908C248.901 404.064 248.706 404.721 248.322 405.32C247.938 405.913 247.411 406.375 246.74 406.707C246.076 407.033 245.34 407.195 244.533 407.195C243.023 407.195 241.831 406.717 240.959 405.76C240.086 404.796 239.65 403.468 239.65 401.775V401.59C239.65 399.962 240.083 398.663 240.949 397.693C241.815 396.723 243.003 396.238 244.513 396.238C245.835 396.238 246.893 396.616 247.687 397.371C248.488 398.12 248.895 399.119 248.908 400.369H246.261C246.248 399.822 246.079 399.38 245.754 399.041C245.428 398.696 244.998 398.523 244.465 398.523C243.807 398.523 243.309 398.764 242.97 399.246C242.638 399.721 242.472 400.496 242.472 401.57V401.863C242.472 402.951 242.638 403.732 242.97 404.207C243.302 404.682 243.807 404.92 244.484 404.92ZM253.274 397.586C254.023 396.688 254.964 396.238 256.097 396.238C258.388 396.238 259.55 397.57 259.583 400.232V407H256.761V400.311C256.761 399.705 256.63 399.259 256.37 398.973C256.11 398.68 255.677 398.533 255.071 398.533C254.244 398.533 253.645 398.852 253.274 399.49V407H250.452V392H253.274V397.586ZM264.691 407H261.859V396.434H264.691V407ZM261.693 393.699C261.693 393.276 261.833 392.928 262.113 392.654C262.4 392.381 262.787 392.244 263.275 392.244C263.757 392.244 264.141 392.381 264.428 392.654C264.714 392.928 264.857 393.276 264.857 393.699C264.857 394.129 264.711 394.48 264.418 394.754C264.131 395.027 263.751 395.164 263.275 395.164C262.8 395.164 262.416 395.027 262.123 394.754C261.837 394.48 261.693 394.129 261.693 393.699ZM270.405 393.836V396.434H272.212V398.504H270.405V403.777C270.405 404.168 270.48 404.448 270.63 404.617C270.78 404.786 271.066 404.871 271.489 404.871C271.802 404.871 272.078 404.848 272.319 404.803V406.941C271.766 407.111 271.196 407.195 270.61 407.195C268.631 407.195 267.622 406.196 267.583 404.197V398.504H266.04V396.434H267.583V393.836H270.405ZM278.649 407.195C277.099 407.195 275.836 406.72 274.859 405.77C273.889 404.819 273.404 403.553 273.404 401.971V401.697C273.404 400.636 273.609 399.689 274.02 398.855C274.43 398.016 275.009 397.371 275.758 396.922C276.513 396.466 277.372 396.238 278.336 396.238C279.781 396.238 280.917 396.694 281.744 397.605C282.578 398.517 282.994 399.809 282.994 401.482V402.635H276.266C276.357 403.325 276.63 403.878 277.086 404.295C277.548 404.712 278.131 404.92 278.834 404.92C279.921 404.92 280.771 404.526 281.383 403.738L282.77 405.291C282.346 405.89 281.774 406.359 281.051 406.697C280.328 407.029 279.527 407.195 278.649 407.195ZM278.326 398.523C277.766 398.523 277.311 398.712 276.959 399.09C276.614 399.467 276.393 400.008 276.295 400.711H280.221V400.486C280.208 399.861 280.039 399.38 279.713 399.041C279.387 398.696 278.925 398.523 278.326 398.523ZM289.001 404.92C289.522 404.92 289.945 404.777 290.271 404.49C290.596 404.204 290.765 403.823 290.778 403.348H293.425C293.418 404.064 293.223 404.721 292.839 405.32C292.455 405.913 291.928 406.375 291.257 406.707C290.593 407.033 289.857 407.195 289.05 407.195C287.54 407.195 286.348 406.717 285.476 405.76C284.603 404.796 284.167 403.468 284.167 401.775V401.59C284.167 399.962 284.6 398.663 285.466 397.693C286.332 396.723 287.52 396.238 289.03 396.238C290.352 396.238 291.41 396.616 292.204 397.371C293.005 398.12 293.412 399.119 293.425 400.369H290.778C290.765 399.822 290.596 399.38 290.271 399.041C289.945 398.696 289.515 398.523 288.982 398.523C288.324 398.523 287.826 398.764 287.487 399.246C287.155 399.721 286.989 400.496 286.989 401.57V401.863C286.989 402.951 287.155 403.732 287.487 404.207C287.82 404.682 288.324 404.92 289.001 404.92ZM298.416 393.836V396.434H300.223V398.504H298.416V403.777C298.416 404.168 298.491 404.448 298.641 404.617C298.791 404.786 299.077 404.871 299.5 404.871C299.813 404.871 300.089 404.848 300.33 404.803V406.941C299.777 407.111 299.207 407.195 298.621 407.195C296.642 407.195 295.633 406.196 295.594 404.197V398.504H294.051V396.434H295.594V393.836H298.416ZM308.124 405.926C307.428 406.772 306.464 407.195 305.234 407.195C304.101 407.195 303.235 406.87 302.636 406.219C302.044 405.568 301.741 404.614 301.728 403.357V396.434H304.55V403.26C304.55 404.36 305.051 404.91 306.054 404.91C307.011 404.91 307.669 404.578 308.027 403.914V396.434H310.859V407H308.202L308.124 405.926ZM318.926 399.08C318.542 399.028 318.204 399.002 317.911 399.002C316.843 399.002 316.143 399.363 315.811 400.086V407H312.989V396.434H315.655L315.733 397.693C316.299 396.723 317.084 396.238 318.086 396.238C318.399 396.238 318.692 396.281 318.965 396.365L318.926 399.08ZM324.962 407.195C323.413 407.195 322.15 406.72 321.173 405.77C320.203 404.819 319.718 403.553 319.718 401.971V401.697C319.718 400.636 319.923 399.689 320.334 398.855C320.744 398.016 321.323 397.371 322.072 396.922C322.827 396.466 323.686 396.238 324.65 396.238C326.095 396.238 327.231 396.694 328.058 397.605C328.891 398.517 329.308 399.809 329.308 401.482V402.635H322.58C322.671 403.325 322.944 403.878 323.4 404.295C323.862 404.712 324.445 404.92 325.148 404.92C326.235 404.92 327.085 404.526 327.697 403.738L329.084 405.291C328.66 405.89 328.087 406.359 327.365 406.697C326.642 407.029 325.841 407.195 324.962 407.195ZM324.64 398.523C324.08 398.523 323.625 398.712 323.273 399.09C322.928 399.467 322.707 400.008 322.609 400.711H326.535V400.486C326.522 399.861 326.352 399.38 326.027 399.041C325.701 398.696 325.239 398.523 324.64 398.523Z" fill="white"/>
<path opacity="0.8" d="M74.9448 757.758H76.1699V764.302C76.1699 765.187 75.9033 765.879 75.3701 766.378C74.8411 766.877 74.1344 767.127 73.25 767.127C72.3317 767.127 71.6165 766.892 71.1045 766.422C70.5924 765.953 70.3364 765.295 70.3364 764.448H71.5552C71.5552 764.977 71.6991 765.39 71.9868 765.686C72.2788 765.982 72.6999 766.13 73.25 766.13C73.7536 766.13 74.1598 765.972 74.4688 765.654C74.7819 765.337 74.9406 764.893 74.9448 764.321V757.758ZM82.3018 766.321C81.8447 766.858 81.174 767.127 80.2896 767.127C79.5575 767.127 78.9989 766.915 78.6138 766.492C78.2329 766.065 78.0404 765.434 78.0361 764.601V760.132H79.2104V764.569C79.2104 765.61 79.6336 766.13 80.48 766.13C81.3771 766.13 81.9738 765.796 82.27 765.127V760.132H83.4443V767H82.3271L82.3018 766.321ZM86.5103 767H85.3359V757.25H86.5103V767ZM89.6714 767H88.4971V760.132H89.6714V767ZM88.4019 758.31C88.4019 758.12 88.459 757.959 88.5732 757.828C88.6917 757.696 88.8652 757.631 89.0938 757.631C89.3223 757.631 89.4958 757.696 89.6143 757.828C89.7327 757.959 89.792 758.12 89.792 758.31C89.792 758.5 89.7327 758.659 89.6143 758.786C89.4958 758.913 89.3223 758.977 89.0938 758.977C88.8652 758.977 88.6917 758.913 88.5732 758.786C88.459 758.659 88.4019 758.5 88.4019 758.31ZM95.7969 767C95.7292 766.865 95.6742 766.623 95.6318 766.276C95.0859 766.843 94.4342 767.127 93.6768 767.127C92.9997 767.127 92.4432 766.937 92.0073 766.556C91.5757 766.171 91.3599 765.684 91.3599 765.096C91.3599 764.381 91.6307 763.826 92.1724 763.433C92.7183 763.035 93.4842 762.836 94.4702 762.836H95.6128V762.296C95.6128 761.886 95.4901 761.56 95.2446 761.319C94.9992 761.073 94.6374 760.951 94.1592 760.951C93.7402 760.951 93.389 761.056 93.1055 761.268C92.8219 761.48 92.6802 761.736 92.6802 762.036H91.4995C91.4995 761.693 91.6201 761.363 91.8613 761.046C92.1068 760.724 92.4368 760.47 92.8516 760.284C93.2705 760.098 93.7297 760.005 94.229 760.005C95.0203 760.005 95.6403 760.204 96.0889 760.602C96.5374 760.995 96.7702 761.539 96.7871 762.233V765.394C96.7871 766.025 96.8675 766.526 97.0283 766.898V767H95.7969ZM93.8481 766.105C94.2163 766.105 94.5654 766.01 94.8955 765.819C95.2256 765.629 95.4647 765.381 95.6128 765.077V763.667H94.6924C93.2536 763.667 92.5342 764.089 92.5342 764.931C92.5342 765.299 92.6569 765.587 92.9023 765.794C93.1478 766.001 93.4631 766.105 93.8481 766.105ZM99.7388 760.132L99.7769 760.995C100.302 760.335 100.987 760.005 101.833 760.005C103.285 760.005 104.017 760.824 104.03 762.461V767H102.855V762.455C102.851 761.96 102.737 761.594 102.513 761.357C102.293 761.12 101.948 761.001 101.478 761.001C101.097 761.001 100.763 761.103 100.475 761.306C100.187 761.509 99.9631 761.776 99.8022 762.106V767H98.6279V760.132H99.7388ZM112.599 763.261H110.428V767H109.203V757.758H112.263C113.304 757.758 114.104 757.995 114.662 758.469C115.225 758.943 115.506 759.632 115.506 760.538C115.506 761.114 115.35 761.615 115.037 762.042C114.728 762.47 114.296 762.789 113.742 763.001L115.913 766.924V767H114.605L112.599 763.261ZM110.428 762.265H112.301C112.906 762.265 113.386 762.108 113.742 761.795C114.101 761.482 114.281 761.063 114.281 760.538C114.281 759.967 114.11 759.529 113.767 759.224C113.429 758.919 112.938 758.765 112.294 758.761H110.428V762.265ZM118.312 767H117.138V760.132H118.312V767ZM117.042 758.31C117.042 758.12 117.1 757.959 117.214 757.828C117.332 757.696 117.506 757.631 117.734 757.631C117.963 757.631 118.136 757.696 118.255 757.828C118.373 757.959 118.433 758.12 118.433 758.31C118.433 758.5 118.373 758.659 118.255 758.786C118.136 758.913 117.963 758.977 117.734 758.977C117.506 758.977 117.332 758.913 117.214 758.786C117.1 758.659 117.042 758.5 117.042 758.31ZM121.473 767H120.299V760.132H121.473V767ZM120.204 758.31C120.204 758.12 120.261 757.959 120.375 757.828C120.493 757.696 120.667 757.631 120.896 757.631C121.124 757.631 121.298 757.696 121.416 757.828C121.535 757.959 121.594 758.12 121.594 758.31C121.594 758.5 121.535 758.659 121.416 758.786C121.298 758.913 121.124 758.977 120.896 758.977C120.667 758.977 120.493 758.913 120.375 758.786C120.261 758.659 120.204 758.5 120.204 758.31ZM127.357 765.178C127.357 764.861 127.237 764.615 126.996 764.442C126.759 764.264 126.342 764.112 125.745 763.985C125.153 763.858 124.681 763.706 124.33 763.528C123.983 763.35 123.724 763.139 123.555 762.893C123.39 762.648 123.308 762.356 123.308 762.017C123.308 761.454 123.545 760.978 124.019 760.589C124.497 760.2 125.106 760.005 125.847 760.005C126.625 760.005 127.256 760.206 127.738 760.608C128.225 761.01 128.468 761.524 128.468 762.15H127.288C127.288 761.829 127.15 761.552 126.875 761.319C126.604 761.086 126.261 760.97 125.847 760.97C125.419 760.97 125.085 761.063 124.844 761.249C124.603 761.435 124.482 761.679 124.482 761.979C124.482 762.263 124.594 762.476 124.818 762.62C125.043 762.764 125.447 762.902 126.031 763.033C126.619 763.164 127.095 763.32 127.459 763.502C127.823 763.684 128.092 763.904 128.265 764.163C128.443 764.417 128.532 764.728 128.532 765.096C128.532 765.709 128.286 766.202 127.795 766.575C127.305 766.943 126.668 767.127 125.885 767.127C125.335 767.127 124.848 767.03 124.425 766.835C124.002 766.64 123.669 766.369 123.428 766.022C123.191 765.671 123.073 765.292 123.073 764.886H124.247C124.268 765.28 124.425 765.593 124.717 765.826C125.013 766.054 125.402 766.168 125.885 766.168C126.329 766.168 126.685 766.08 126.951 765.902C127.222 765.72 127.357 765.479 127.357 765.178ZM132.912 767.127C131.981 767.127 131.223 766.822 130.639 766.213C130.055 765.599 129.763 764.78 129.763 763.756V763.541C129.763 762.859 129.892 762.252 130.15 761.719C130.413 761.181 130.777 760.762 131.242 760.462C131.712 760.157 132.22 760.005 132.766 760.005C133.659 760.005 134.353 760.299 134.848 760.887C135.343 761.475 135.59 762.318 135.59 763.414V763.902H130.938C130.954 764.579 131.151 765.127 131.528 765.546C131.909 765.961 132.391 766.168 132.975 766.168C133.39 766.168 133.741 766.084 134.029 765.915C134.317 765.745 134.568 765.521 134.784 765.242L135.501 765.8C134.926 766.685 134.063 767.127 132.912 767.127ZM132.766 760.97C132.292 760.97 131.894 761.143 131.572 761.49C131.251 761.833 131.052 762.315 130.976 762.938H134.416V762.849C134.382 762.252 134.221 761.791 133.934 761.465C133.646 761.135 133.257 760.97 132.766 760.97ZM72.2915 782.382V786H71.0728V776.758H74.4814C75.4928 776.758 76.2842 777.016 76.8555 777.532C77.431 778.049 77.7188 778.732 77.7188 779.583C77.7188 780.48 77.4373 781.172 76.8745 781.658C76.3159 782.141 75.514 782.382 74.4688 782.382H72.2915ZM72.2915 781.385H74.4814C75.1331 781.385 75.6325 781.233 75.9795 780.928C76.3265 780.619 76.5 780.175 76.5 779.595C76.5 779.045 76.3265 778.605 75.9795 778.275C75.6325 777.945 75.1564 777.773 74.5513 777.761H72.2915V781.385ZM82.4097 780.186C82.2319 780.156 82.0394 780.141 81.832 780.141C81.0618 780.141 80.5392 780.469 80.2642 781.125V786H79.0898V779.132H80.2324L80.2515 779.925C80.6366 779.312 81.1825 779.005 81.8892 779.005C82.1177 779.005 82.2912 779.035 82.4097 779.094V780.186ZM86.2183 786.127C85.2873 786.127 84.5298 785.822 83.9458 785.213C83.3618 784.599 83.0698 783.78 83.0698 782.756V782.541C83.0698 781.859 83.1989 781.252 83.457 780.719C83.7194 780.181 84.0833 779.762 84.5488 779.462C85.0186 779.157 85.5264 779.005 86.0723 779.005C86.9652 779.005 87.6592 779.299 88.1543 779.887C88.6494 780.475 88.897 781.318 88.897 782.414V782.902H84.2441C84.2611 783.579 84.4578 784.127 84.8345 784.546C85.2153 784.961 85.6978 785.168 86.2817 785.168C86.6965 785.168 87.0477 785.084 87.3354 784.915C87.6232 784.745 87.875 784.521 88.0908 784.242L88.8081 784.8C88.2326 785.685 87.3693 786.127 86.2183 786.127ZM86.0723 779.97C85.5983 779.97 85.2005 780.143 84.8789 780.49C84.5573 780.833 84.3584 781.315 84.2822 781.938H87.7227V781.849C87.6888 781.252 87.528 780.791 87.2402 780.465C86.9525 780.135 86.5632 779.97 86.0723 779.97ZM92.7056 782.553H89.6079V781.595H92.7056V782.553ZM93.5688 782.509C93.5688 781.455 93.8185 780.609 94.3179 779.97C94.8172 779.326 95.471 779.005 96.2793 779.005C97.0833 779.005 97.7202 779.28 98.1899 779.83V776.25H99.3643V786H98.2852L98.228 785.264C97.7583 785.839 97.1045 786.127 96.2666 786.127C95.471 786.127 94.8215 785.801 94.3179 785.149C93.8185 784.498 93.5688 783.647 93.5688 782.598V782.509ZM94.7432 782.642C94.7432 783.421 94.904 784.03 95.2256 784.47C95.5472 784.91 95.9915 785.13 96.5586 785.13C97.3034 785.13 97.8472 784.796 98.1899 784.127V780.973C97.8387 780.325 97.2992 780.001 96.5713 780.001C95.9958 780.001 95.5472 780.224 95.2256 780.668C94.904 781.112 94.7432 781.77 94.7432 782.642ZM102.468 786H101.294V779.132H102.468V786ZM101.199 777.31C101.199 777.12 101.256 776.959 101.37 776.828C101.489 776.696 101.662 776.631 101.891 776.631C102.119 776.631 102.293 776.696 102.411 776.828C102.53 776.959 102.589 777.12 102.589 777.31C102.589 777.5 102.53 777.659 102.411 777.786C102.293 777.913 102.119 777.977 101.891 777.977C101.662 777.977 101.489 777.913 101.37 777.786C101.256 777.659 101.199 777.5 101.199 777.31ZM110.155 782.642C110.155 783.687 109.916 784.529 109.438 785.168C108.96 785.807 108.312 786.127 107.496 786.127C106.662 786.127 106.006 785.862 105.528 785.333V788.641H104.354V779.132H105.426L105.483 779.894C105.962 779.301 106.626 779.005 107.477 779.005C108.302 779.005 108.953 779.316 109.432 779.938C109.914 780.56 110.155 781.425 110.155 782.534V782.642ZM108.981 782.509C108.981 781.734 108.816 781.123 108.486 780.674C108.156 780.226 107.703 780.001 107.127 780.001C106.417 780.001 105.883 780.317 105.528 780.947V784.229C105.879 784.855 106.417 785.168 107.14 785.168C107.703 785.168 108.149 784.946 108.479 784.502C108.814 784.053 108.981 783.389 108.981 782.509ZM112.929 786H111.755V776.25H112.929V786ZM114.503 782.502C114.503 781.83 114.635 781.224 114.897 780.687C115.164 780.15 115.532 779.735 116.001 779.443C116.475 779.151 117.015 779.005 117.62 779.005C118.555 779.005 119.311 779.329 119.886 779.976C120.466 780.624 120.756 781.485 120.756 782.56V782.642C120.756 783.311 120.627 783.912 120.369 784.445C120.115 784.974 119.749 785.386 119.271 785.683C118.797 785.979 118.251 786.127 117.633 786.127C116.702 786.127 115.946 785.803 115.367 785.156C114.791 784.508 114.503 783.651 114.503 782.585V782.502ZM115.684 782.642C115.684 783.404 115.86 784.015 116.211 784.477C116.566 784.938 117.04 785.168 117.633 785.168C118.229 785.168 118.703 784.936 119.055 784.47C119.406 784 119.582 783.345 119.582 782.502C119.582 781.749 119.402 781.14 119.042 780.674C118.687 780.205 118.213 779.97 117.62 779.97C117.04 779.97 116.573 780.2 116.217 780.662C115.862 781.123 115.684 781.783 115.684 782.642ZM123.333 779.132L123.365 779.894C123.868 779.301 124.548 779.005 125.402 779.005C126.363 779.005 127.017 779.373 127.364 780.109C127.592 779.779 127.889 779.513 128.252 779.31C128.621 779.106 129.054 779.005 129.554 779.005C131.06 779.005 131.826 779.803 131.852 781.398V786H130.677V781.468C130.677 780.977 130.565 780.611 130.341 780.37C130.117 780.124 129.74 780.001 129.211 780.001C128.775 780.001 128.413 780.133 128.125 780.395C127.838 780.653 127.671 781.002 127.624 781.442V786H126.443V781.5C126.443 780.501 125.955 780.001 124.977 780.001C124.207 780.001 123.68 780.329 123.396 780.985V786H122.222V779.132H123.333ZM142.789 786H136.733V785.156L139.932 781.601C140.406 781.064 140.732 780.628 140.91 780.293C141.092 779.955 141.183 779.606 141.183 779.246C141.183 778.764 141.037 778.368 140.745 778.059C140.453 777.75 140.063 777.596 139.577 777.596C138.993 777.596 138.538 777.763 138.212 778.097C137.89 778.427 137.729 778.889 137.729 779.481H136.555C136.555 778.63 136.828 777.943 137.374 777.418C137.924 776.893 138.658 776.631 139.577 776.631C140.436 776.631 141.115 776.857 141.614 777.31C142.114 777.759 142.363 778.357 142.363 779.106C142.363 780.016 141.784 781.1 140.624 782.356L138.148 785.042H142.789V786ZM149.828 782.058C149.828 783.433 149.593 784.455 149.124 785.124C148.654 785.793 147.92 786.127 146.921 786.127C145.935 786.127 145.205 785.801 144.731 785.149C144.257 784.493 144.012 783.516 143.995 782.217V780.649C143.995 779.291 144.229 778.281 144.699 777.621C145.169 776.961 145.905 776.631 146.908 776.631C147.903 776.631 148.635 776.95 149.104 777.589C149.574 778.224 149.815 779.206 149.828 780.535V782.058ZM148.654 780.452C148.654 779.458 148.514 778.734 148.235 778.281C147.956 777.824 147.513 777.596 146.908 777.596C146.307 777.596 145.869 777.822 145.594 778.275C145.319 778.728 145.177 779.424 145.169 780.363V782.242C145.169 783.241 145.313 783.979 145.601 784.458C145.893 784.931 146.333 785.168 146.921 785.168C147.501 785.168 147.93 784.944 148.209 784.496C148.493 784.047 148.641 783.34 148.654 782.375V780.452ZM157.388 786H151.333V785.156L154.532 781.601C155.006 781.064 155.332 780.628 155.509 780.293C155.691 779.955 155.782 779.606 155.782 779.246C155.782 778.764 155.636 778.368 155.344 778.059C155.052 777.75 154.663 777.596 154.176 777.596C153.592 777.596 153.137 777.763 152.812 778.097C152.49 778.427 152.329 778.889 152.329 779.481H151.155C151.155 778.63 151.428 777.943 151.974 777.418C152.524 776.893 153.258 776.631 154.176 776.631C155.035 776.631 155.715 776.857 156.214 777.31C156.713 777.759 156.963 778.357 156.963 779.106C156.963 780.016 156.383 781.1 155.224 782.356L152.748 785.042H157.388V786ZM162.492 786H161.311V778.173L158.943 779.043V777.977L162.308 776.713H162.492V786Z" fill="white"/>
</svg>
